{
  "asset": {
    "generator": "Khronos glTF Blender I/O v3.4.50",
    "version": "2.0"
  },
  "scene": 0,
  "scenes": [
    {
      "name": "Scene",
      "nodes": [0, 1, 2, 3, 4, 5, 6, 7, 8, 9, 10, 11, 12]
    }
  ],
  "nodes": [
    {
      "extras": {
        "MaxHandle": 4
      },
      "mesh": 0,
      "name": "book1"
    },
    {
      "extras": {
        "MaxHandle": 4
      },
      "mesh": 1,
      "name": "book2"
    },
    {
      "extras": {
        "MaxHandle": 4
      },
      "mesh": 2,
      "name": "book3"
    },
    {
      "extras": {
        "MaxHandle": 4
      },
      "mesh": 3,
      "name": "book4"
    },
    {
      "extras": {
        "MaxHandle": 4
      },
      "mesh": 4,
      "name": "book5"
    },
    {
      "extras": {
        "MaxHandle": 4
      },
      "mesh": 5,
      "name": "book6"
    },
    {
      "extras": {
        "MaxHandle": 4
      },
      "mesh": 6,
      "name": "book7"
    },
    {
      "extras": {
        "MaxHandle": 4
      },
      "mesh": 7,
      "name": "book8"
    },
    {
      "extras": {
        "MaxHandle": 4
      },
      "mesh": 8,
      "name": "book9"
    },
    {
      "extras": {
        "MaxHandle": 4
      },
      "mesh": 9,
      "name": "book10"
    },
    {
      "extras": {
        "MaxHandle": 4
      },
      "mesh": 10,
      "name": "book11"
    },
    {
      "extras": {
        "MaxHandle": 4
      },
      "mesh": 11,
      "name": "book12"
    },
    {
      "extras": {
        "MaxHandle": 4
      },
      "mesh": 12,
      "name": "book13"
    }
  ],
  "materials": [
    {
      "doubleSided": true,
      "name": "978-0553103540",
      "pbrMetallicRoughness": {
        "baseColorTexture": {
          "index": 0
        },
        "metallicFactor": 0,
        "roughnessFactor": 0.5
      }
    },
    {
      "doubleSided": true,
      "name": "978-0618640157",
      "pbrMetallicRoughness": {
        "baseColorTexture": {
          "index": 1
        },
        "metallicFactor": 0,
        "roughnessFactor": 0.5
      }
    },
    {
      "doubleSided": true,
      "name": "978-0451524935",
      "pbrMetallicRoughness": {
        "baseColorTexture": {
          "index": 2
        },
        "metallicFactor": 0,
        "roughnessFactor": 0.5
      }
    },
    {
      "doubleSided": true,
      "name": "978-4444532611",
      "pbrMetallicRoughness": {
        "baseColorTexture": {
          "index": 3
        },
        "metallicFactor": 0,
        "roughnessFactor": 0.5
      }
    },
    {
      "doubleSided": true,
      "name": "978-0441172719",
      "pbrMetallicRoughness": {
        "baseColorTexture": {
          "index": 4
        },
        "metallicFactor": 0,
        "roughnessFactor": 0.5
      }
    },
    {
      "doubleSided": true,
      "name": "978-0345391803",
      "pbrMetallicRoughness": {
        "baseColorTexture": {
          "index": 5
        },
        "metallicFactor": 0,
        "roughnessFactor": 0.5
      }
    },
    {
      "doubleSided": true,
      "name": "978-0441569595",
      "pbrMetallicRoughness": {
        "baseColorTexture": {
          "index": 6
        },
        "metallicFactor": 0,
        "roughnessFactor": 0.5
      }
    },
    {
      "doubleSided": true,
      "name": "978-1451673319",
      "pbrMetallicRoughness": {
        "baseColorTexture": {
          "index": 7
        },
        "metallicFactor": 0,
        "roughnessFactor": 0.5
      }
    },
    {
      "doubleSided": true,
      "name": "978-0307743657",
      "pbrMetallicRoughness": {
        "baseColorTexture": {
          "index": 8
        },
        "metallicFactor": 0,
        "roughnessFactor": 0.5
      }
    },
    {
      "doubleSided": true,
      "name": "978-0486411095",
      "pbrMetallicRoughness": {
        "baseColorTexture": {
          "index": 9
        },
        "metallicFactor": 0,
        "roughnessFactor": 0.5
      }
    },
    {
      "doubleSided": true,
      "name": "978-0486282114",
      "pbrMetallicRoughness": {
        "baseColorTexture": {
          "index": 10
        },
        "metallicFactor": 0,
        "roughnessFactor": 0.5
      }
    },
    {
      "doubleSided": true,
      "name": "978-1542461690",
      "pbrMetallicRoughness": {
        "baseColorTexture": {
          "index": 11
        },
        "metallicFactor": 0,
        "roughnessFactor": 0.5
      }
    },
    {
      "doubleSided": true,
      "name": "978-0747532699",
      "pbrMetallicRoughness": {
        "baseColorTexture": {
          "index": 12
        },
        "metallicFactor": 0,
        "roughnessFactor": 0.5
      }
    }
  ],
  "meshes": [
    {
      "name": "boo1_maya",
      "primitives": [
        {
          "attributes": {
            "POSITION": 0,
            "TEXCOORD_0": 1,
            "NORMAL": 2
          },
          "indices": 3,
          "material": 0
        }
      ]
    },
    {
      "name": "boo2_maya",
      "primitives": [
        {
          "attributes": {
            "POSITION": 4,
            "TEXCOORD_0": 5,
            "NORMAL": 6
          },
          "indices": 3,
          "material": 1
        }
      ]
    },
    {
      "name": "boo3_maya",
      "primitives": [
        {
          "attributes": {
            "POSITION": 7,
            "TEXCOORD_0": 8,
            "NORMAL": 9
          },
          "indices": 3,
          "material": 2
        }
      ]
    },
    {
      "name": "boo4_maya",
      "primitives": [
        {
          "attributes": {
            "POSITION": 10,
            "TEXCOORD_0": 11,
            "NORMAL": 12
          },
          "indices": 3,
          "material": 3
        }
      ]
    },
    {
      "name": "boo5_maya",
      "primitives": [
        {
          "attributes": {
            "POSITION": 13,
            "TEXCOORD_0": 14,
            "NORMAL": 15
          },
          "indices": 3,
          "material": 4
        }
      ]
    },
    {
      "name": "boo6_maya",
      "primitives": [
        {
          "attributes": {
            "POSITION": 16,
            "TEXCOORD_0": 17,
            "NORMAL": 18
          },
          "indices": 3,
          "material": 5
        }
      ]
    },
    {
      "name": "boo7_maya",
      "primitives": [
        {
          "attributes": {
            "POSITION": 19,
            "TEXCOORD_0": 20,
            "NORMAL": 21
          },
          "indices": 3,
          "material": 6
        }
      ]
    },
    {
      "name": "boo8_maya",
      "primitives": [
        {
          "attributes": {
            "POSITION": 22,
            "TEXCOORD_0": 23,
            "NORMAL": 24
          },
          "indices": 3,
          "material": 7
        }
      ]
    },
    {
      "name": "boo9_maya",
      "primitives": [
        {
          "attributes": {
            "POSITION": 25,
            "TEXCOORD_0": 26,
            "NORMAL": 27
          },
          "indices": 3,
          "material": 8
        }
      ]
    },
    {
      "name": "boo10_maya",
      "primitives": [
        {
          "attributes": {
            "POSITION": 28,
            "TEXCOORD_0": 29,
            "NORMAL": 30
          },
          "indices": 3,
          "material": 9
        }
      ]
    },
    {
      "name": "boo11_maya",
      "primitives": [
        {
          "attributes": {
            "POSITION": 31,
            "TEXCOORD_0": 32,
            "NORMAL": 33
          },
          "indices": 3,
          "material": 10
        }
      ]
    },
    {
      "name": "boo12_maya",
      "primitives": [
        {
          "attributes": {
            "POSITION": 34,
            "TEXCOORD_0": 35,
            "NORMAL": 36
          },
          "indices": 3,
          "material": 11
        }
      ]
    },
    {
      "name": "boo13_maya",
      "primitives": [
        {
          "attributes": {
            "POSITION": 37,
            "TEXCOORD_0": 38,
            "NORMAL": 39
          },
          "indices": 3,
          "material": 12
        }
      ]
    }
  ],
  "textures": [
    {
      "sampler": 0,
      "source": 0
    },
    {
      "sampler": 0,
      "source": 1
    },
    {
      "sampler": 0,
      "source": 2
    },
    {
      "sampler": 0,
      "source": 3
    },
    {
      "sampler": 0,
      "source": 4
    },
    {
      "sampler": 0,
      "source": 5
    },
    {
      "sampler": 0,
      "source": 6
    },
    {
      "sampler": 0,
      "source": 7
    },
    {
      "sampler": 0,
      "source": 8
    },
    {
      "sampler": 0,
      "source": 9
    },
    {
      "sampler": 0,
      "source": 10
    },
    {
      "sampler": 0,
      "source": 11
    },
    {
      "sampler": 0,
      "source": 12
    }
  ],
  "images": [
    {
      "mimeType": "image/jpeg",
      "name": "978-0553103540",
      "uri": "./textures/978-0553103540.jpg"
    },
    {
      "mimeType": "image/jpeg",
      "name": "978-0618640157",
      "uri": "./textures/978-0618640157.jpg"
    },
    {
      "mimeType": "image/jpeg",
      "name": "978-0451524935",
      "uri": "./textures/978-0451524935.jpg"
    },
    {
      "mimeType": "image/jpeg",
      "name": "978-4444532611",
      "uri": "./textures/978-4444532611.jpg"
    },
    {
      "mimeType": "image/jpeg",
      "name": "978-0441172719",
      "uri": "./textures/978-0441172719.jpg"
    },
    {
      "mimeType": "image/jpeg",
      "name": "978-0345391803",
      "uri": "./textures/978-0345391803.jpg"
    },
    {
      "mimeType": "image/jpeg",
      "name": "978-0441569595",
      "uri": "./textures/978-0441569595.jpg"
    },
    {
      "mimeType": "image/jpeg",
      "name": "978-1451673319",
      "uri": "./textures/978-1451673319.jpg"
    },
    {
      "mimeType": "image/jpeg",
      "name": "978-0307743657",
      "uri": "./textures/978-0307743657.jpg"
    },
    {
      "mimeType": "image/jpeg",
      "name": "978-0486411095",
      "uri": "./textures/978-0486411095.jpg"
    },
    {
      "mimeType": "image/jpeg",
      "name": "978-0486282114",
      "uri": "./textures/978-0486282114.jpg"
    },
    {
      "mimeType": "image/jpeg",
      "name": "978-1542461690",
      "uri": "./textures/978-1542461690.jpg"
    },
    {
      "mimeType": "image/jpeg",
      "name": "978-0747532699",
      "uri": "./textures/978-0747532699.jpg"
    }
  ],
  "accessors": [
    {
      "bufferView": 0,
      "componentType": 5126,
      "count": 5394,
      "max": [0.5412412285804749, 0.9233067631721497, 0.14740900695323944],
      "min": [-0.5183973908424377, -0.675603985786438, -0.1419161707162857],
      "type": "VEC3"
    },
    {
      "bufferView": 1,
      "componentType": 5126,
      "count": 5394,
      "type": "VEC2"
    },
    {
      "bufferView": 2,
      "componentType": 5126,
      "count": 5394,
      "type": "VEC3"
    },
    {
      "bufferView": 3,
      "componentType": 5123,
      "count": 30114,
      "type": "SCALAR"
    },
    {
      "bufferView": 4,
      "componentType": 5126,
      "count": 5394,
      "max": [0.5412412285804749, 0.9233067631721497, 0.14740900695323944],
      "min": [-0.5183973908424377, -0.675603985786438, -0.1419161707162857],
      "type": "VEC3"
    },
    {
      "bufferView": 5,
      "componentType": 5126,
      "count": 5394,
      "type": "VEC2"
    },
    {
      "bufferView": 6,
      "componentType": 5126,
      "count": 5394,
      "type": "VEC3"
    },
    {
      "bufferView": 7,
      "componentType": 5126,
      "count": 5394,
      "max": [0.5412412285804749, 0.9233067631721497, 0.14740900695323944],
      "min": [-0.5183973908424377, -0.675603985786438, -0.1419161707162857],
      "type": "VEC3"
    },
    {
      "bufferView": 8,
      "componentType": 5126,
      "count": 5394,
      "type": "VEC2"
    },
    {
      "bufferView": 9,
      "componentType": 5126,
      "count": 5394,
      "type": "VEC3"
    },
    {
      "bufferView": 10,
      "componentType": 5126,
      "count": 5394,
      "max": [0.5412412285804749, 0.9233067631721497, 0.14740900695323944],
      "min": [-0.5183973908424377, -0.675603985786438, -0.1419161707162857],
      "type": "VEC3"
    },
    {
      "bufferView": 11,
      "componentType": 5126,
      "count": 5394,
      "type": "VEC2"
    },
    {
      "bufferView": 12,
      "componentType": 5126,
      "count": 5394,
      "type": "VEC3"
    },
    {
      "bufferView": 13,
      "componentType": 5126,
      "count": 5394,
      "max": [0.5412412285804749, 0.9233067631721497, 0.14740900695323944],
      "min": [-0.5183973908424377, -0.675603985786438, -0.1419161707162857],
      "type": "VEC3"
    },
    {
      "bufferView": 14,
      "componentType": 5126,
      "count": 5394,
      "type": "VEC2"
    },
    {
      "bufferView": 15,
      "componentType": 5126,
      "count": 5394,
      "type": "VEC3"
    },
    {
      "bufferView": 16,
      "componentType": 5126,
      "count": 5394,
      "max": [0.5412412285804749, 0.9233067631721497, 0.14740900695323944],
      "min": [-0.5183973908424377, -0.675603985786438, -0.1419161707162857],
      "type": "VEC3"
    },
    {
      "bufferView": 17,
      "componentType": 5126,
      "count": 5394,
      "type": "VEC2"
    },
    {
      "bufferView": 18,
      "componentType": 5126,
      "count": 5394,
      "type": "VEC3"
    },
    {
      "bufferView": 19,
      "componentType": 5126,
      "count": 5394,
      "max": [0.5412412285804749, 0.9233067631721497, 0.14740900695323944],
      "min": [-0.5183973908424377, -0.675603985786438, -0.1419161707162857],
      "type": "VEC3"
    },
    {
      "bufferView": 20,
      "componentType": 5126,
      "count": 5394,
      "type": "VEC2"
    },
    {
      "bufferView": 21,
      "componentType": 5126,
      "count": 5394,
      "type": "VEC3"
    },
    {
      "bufferView": 22,
      "componentType": 5126,
      "count": 5394,
      "max": [0.5412412285804749, 0.9233067631721497, 0.14740900695323944],
      "min": [-0.5183973908424377, -0.675603985786438, -0.1419161707162857],
      "type": "VEC3"
    },
    {
      "bufferView": 23,
      "componentType": 5126,
      "count": 5394,
      "type": "VEC2"
    },
    {
      "bufferView": 24,
      "componentType": 5126,
      "count": 5394,
      "type": "VEC3"
    },
    {
      "bufferView": 25,
      "componentType": 5126,
      "count": 5394,
      "max": [0.5412412285804749, 0.9233067631721497, 0.14740900695323944],
      "min": [-0.5183973908424377, -0.675603985786438, -0.1419161707162857],
      "type": "VEC3"
    },
    {
      "bufferView": 26,
      "componentType": 5126,
      "count": 5394,
      "type": "VEC2"
    },
    {
      "bufferView": 27,
      "componentType": 5126,
      "count": 5394,
      "type": "VEC3"
    },
    {
      "bufferView": 28,
      "componentType": 5126,
      "count": 5394,
      "max": [0.5412412285804749, 0.9233067631721497, 0.14740900695323944],
      "min": [-0.5183973908424377, -0.675603985786438, -0.1419161707162857],
      "type": "VEC3"
    },
    {
      "bufferView": 29,
      "componentType": 5126,
      "count": 5394,
      "type": "VEC2"
    },
    {
      "bufferView": 30,
      "componentType": 5126,
      "count": 5394,
      "type": "VEC3"
    },
    {
      "bufferView": 31,
      "componentType": 5126,
      "count": 5394,
      "max": [0.5412412285804749, 0.9233067631721497, 0.14740900695323944],
      "min": [-0.5183973908424377, -0.675603985786438, -0.1419161707162857],
      "type": "VEC3"
    },
    {
      "bufferView": 32,
      "componentType": 5126,
      "count": 5394,
      "type": "VEC2"
    },
    {
      "bufferView": 33,
      "componentType": 5126,
      "count": 5394,
      "type": "VEC3"
    },
    {
      "bufferView": 34,
      "componentType": 5126,
      "count": 5394,
      "max": [0.5412412285804749, 0.9233067631721497, 0.14740900695323944],
      "min": [-0.5183973908424377, -0.675603985786438, -0.1419161707162857],
      "type": "VEC3"
    },
    {
      "bufferView": 35,
      "componentType": 5126,
      "count": 5394,
      "type": "VEC2"
    },
    {
      "bufferView": 36,
      "componentType": 5126,
      "count": 5394,
      "type": "VEC3"
    },
    {
      "bufferView": 37,
      "componentType": 5126,
      "count": 5394,
      "max": [0.5412412285804749, 0.9233067631721497, 0.14740900695323944],
      "min": [-0.5183973908424377, -0.675603985786438, -0.1419161707162857],
      "type": "VEC3"
    },
    {
      "bufferView": 38,
      "componentType": 5126,
      "count": 5394,
      "type": "VEC2"
    },
    {
      "bufferView": 39,
      "componentType": 5126,
      "count": 5394,
      "type": "VEC3"
    }
  ],
  "bufferViews": [
    {
      "buffer": 0,
      "byteLength": 64728,
      "byteOffset": 0,
      "target": 34962
    },
    {
      "buffer": 0,
      "byteLength": 43152,
      "byteOffset": 64728,
      "target": 34962
    },
    {
      "buffer": 0,
      "byteLength": 64728,
      "byteOffset": 107880,
      "target": 34962
    },
    {
      "buffer": 0,
      "byteLength": 60228,
      "byteOffset": 172608,
      "target": 34963
    },
    {
      "buffer": 0,
      "byteLength": 64728,
      "byteOffset": 232836,
      "target": 34962
    },
    {
      "buffer": 0,
      "byteLength": 43152,
      "byteOffset": 297564,
      "target": 34962
    },
    {
      "buffer": 0,
      "byteLength": 64728,
      "byteOffset": 340716,
      "target": 34962
    },
    {
      "buffer": 0,
      "byteLength": 64728,
      "byteOffset": 405444,
      "target": 34962
    },
    {
      "buffer": 0,
      "byteLength": 43152,
      "byteOffset": 470172,
      "target": 34962
    },
    {
      "buffer": 0,
      "byteLength": 64728,
      "byteOffset": 513324,
      "target": 34962
    },
    {
      "buffer": 0,
      "byteLength": 64728,
      "byteOffset": 578052,
      "target": 34962
    },
    {
      "buffer": 0,
      "byteLength": 43152,
      "byteOffset": 642780,
      "target": 34962
    },
    {
      "buffer": 0,
      "byteLength": 64728,
      "byteOffset": 685932,
      "target": 34962
    },
    {
      "buffer": 0,
      "byteLength": 64728,
      "byteOffset": 750660,
      "target": 34962
    },
    {
      "buffer": 0,
      "byteLength": 43152,
      "byteOffset": 815388,
      "target": 34962
    },
    {
      "buffer": 0,
      "byteLength": 64728,
      "byteOffset": 858540,
      "target": 34962
    },
    {
      "buffer": 0,
      "byteLength": 64728,
      "byteOffset": 923268,
      "target": 34962
    },
    {
      "buffer": 0,
      "byteLength": 43152,
      "byteOffset": 987996,
      "target": 34962
    },
    {
      "buffer": 0,
      "byteLength": 64728,
      "byteOffset": 1031148,
      "target": 34962
    },
    {
      "buffer": 0,
      "byteLength": 64728,
      "byteOffset": 1095876,
      "target": 34962
    },
    {
      "buffer": 0,
      "byteLength": 43152,
      "byteOffset": 1160604,
      "target": 34962
    },
    {
      "buffer": 0,
      "byteLength": 64728,
      "byteOffset": 1203756,
      "target": 34962
    },
    {
      "buffer": 0,
      "byteLength": 64728,
      "byteOffset": 1268484,
      "target": 34962
    },
    {
      "buffer": 0,
      "byteLength": 43152,
      "byteOffset": 1333212,
      "target": 34962
    },
    {
      "buffer": 0,
      "byteLength": 64728,
      "byteOffset": 1376364,
      "target": 34962
    },
    {
      "buffer": 0,
      "byteLength": 64728,
      "byteOffset": 1441092,
      "target": 34962
    },
    {
      "buffer": 0,
      "byteLength": 43152,
      "byteOffset": 1505820,
      "target": 34962
    },
    {
      "buffer": 0,
      "byteLength": 64728,
      "byteOffset": 1548972,
      "target": 34962
    },
    {
      "buffer": 0,
      "byteLength": 64728,
      "byteOffset": 1613700,
      "target": 34962
    },
    {
      "buffer": 0,
      "byteLength": 43152,
      "byteOffset": 1678428,
      "target": 34962
    },
    {
      "buffer": 0,
      "byteLength": 64728,
      "byteOffset": 1721580,
      "target": 34962
    },
    {
      "buffer": 0,
      "byteLength": 64728,
      "byteOffset": 1786308,
      "target": 34962
    },
    {
      "buffer": 0,
      "byteLength": 43152,
      "byteOffset": 1851036,
      "target": 34962
    },
    {
      "buffer": 0,
      "byteLength": 64728,
      "byteOffset": 1894188,
      "target": 34962
    },
    {
      "buffer": 0,
      "byteLength": 64728,
      "byteOffset": 1958916,
      "target": 34962
    },
    {
      "buffer": 0,
      "byteLength": 43152,
      "byteOffset": 2023644,
      "target": 34962
    },
    {
      "buffer": 0,
      "byteLength": 64728,
      "byteOffset": 2066796,
      "target": 34962
    },
    {
      "buffer": 0,
      "byteLength": 64728,
      "byteOffset": 2131524,
      "target": 34962
    },
    {
      "buffer": 0,
      "byteLength": 43152,
      "byteOffset": 2196252,
      "target": 34962
    },
    {
      "buffer": 0,
      "byteLength": 64728,
      "byteOffset": 2239404,
      "target": 34962
    }
  ],
  "samplers": [
    {
      "magFilter": 9729,
      "minFilter": 9987
    }
  ],
  "buffers": [
    {
      "byteLength": 2304132,
      "uri": "./book.bin"
    }
  ]
}
