<?xml version="1.0" ?><!-- Uploaded to: SVG Repo, www.svgrepo.com, Generator: SVG Repo Mixer Tools -->
<svg width="800px" height="800px" viewBox="0 0 64 64" data-name="Layer 1" id="Layer_1" xmlns="http://www.w3.org/2000/svg"><defs><style>
      .cls-1 {
        fill: #a3cef1;
      }

      .cls-2 {
        fill: #6096ba;
      }

      .cls-3 {
        fill: #274c77;
      }
    </style></defs><path class="cls-3" d="M32,51h-3l-2-2H10V19h4v24s12.15-3,18,8Z"/><path class="cls-3" d="M50,43V19h4v30h-17s-2,2-2,2h-3c5.85-11,18-8,18-8Z"/><path class="cls-2" d="M32,51c-5.85-11-18-8-18-8V16l6-2v25c6.63,0,12,5.37,12,12Z"/><path class="cls-2" d="M44,14l6,2v27s-12.15-3-18,8c0-6.63,5.37-12,12-12V14Z"/><path class="cls-1" d="M32,25c0-6.63-5.37-12-12-12v26c6.63,0,12,5.37,12,12,0-6.63,5.37-12,12-12V13c-6.63,0-12,5.37-12,12Z"/></svg>