<?xml version="1.0" encoding="iso-8859-1"?>
<!-- Uploaded to: SVG Repo, www.svgrepo.com, Generator: SVG Repo Mixer Tools -->
<svg height="800px" width="800px" version="1.1" id="Layer_1" xmlns="http://www.w3.org/2000/svg" xmlns:xlink="http://www.w3.org/1999/xlink" 
	 viewBox="0 0 512 512" xml:space="preserve">
<path style="fill:#A7B0C0;" d="M140.8,486.4c-42.351,0-76.8-34.449-76.8-76.8s34.449-76.8,76.8-76.8h330.667v153.6H140.8z"/>
<path style="fill:#D3D7DF;" d="M38.4,332.8V179.2h332.8c42.351,0,76.8,34.449,76.8,76.8s-34.449,76.8-76.8,76.8H38.4z"/>
<path style="fill:#A7B0C0;" d="M140.8,179.2c-42.351,0-76.8-34.449-76.8-76.8s34.449-76.8,76.8-76.8h330.667v153.6H140.8z"/>
<path style="fill:#573A32;" d="M499.2,38.4c7.074,0,12.8-5.726,12.8-12.8s-5.726-12.8-12.8-12.8H140.8
	c-49.399,0-89.6,40.201-89.6,89.6c0,25.079,10.428,47.718,27.093,64H12.8c-7.074,0-12.8,5.726-12.8,12.8S5.726,192,12.8,192h12.8
	v128H12.8C5.726,320,0,325.726,0,332.8s5.726,12.8,12.8,12.8h65.493c-16.666,16.282-27.093,38.921-27.093,64
	c0,49.399,40.201,89.6,89.6,89.6h358.4c7.074,0,12.8-5.726,12.8-12.8s-5.726-12.8-12.8-12.8h-14.933v-128H499.2
	c7.074,0,12.8-5.726,12.8-12.8s-5.726-12.8-12.8-12.8h-65.493c16.666-16.282,27.093-38.921,27.093-64s-10.428-47.718-27.093-64
	H499.2c7.074,0,12.8-5.726,12.8-12.8s-5.726-12.8-12.8-12.8h-14.933v-128H499.2z M458.667,345.6v128H140.8
	c-35.285,0-64-28.715-64-64s28.715-64,64-64h230.4H458.667z M435.2,256c0,35.285-28.715,64-64,64H140.8H51.2V192h89.6h230.4
	C406.485,192,435.2,220.715,435.2,256z M458.667,166.4H371.2H140.8c-35.285,0-64-28.715-64-64s28.715-64,64-64h317.867V166.4z"/>
</svg>