<?xml version="1.0" ?>
<!-- Uploaded to: SVG Repo, www.svgrepo.com, Generator: SVG Repo Mixer Tools -->
<svg width="800px" height="800px" viewBox="0 0 512 512" id="Layer_1" version="1.1" xml:space="preserve" xmlns="http://www.w3.org/2000/svg" xmlns:xlink="http://www.w3.org/1999/xlink">
<style type="text/css">
	.st0{fill:#A6E1FB;}
	.st1{fill:#D3D9D9;}
	.st2{fill:#333333;}
	.st3{fill:#E8EAEA;}
	.st4{fill:#A8B2B4;}
	.st5{fill:#FFFFFF;}
	.st6{fill:#FC8A8A;}
	.st7{fill:#FDDD8D;}
	.st8{fill:#FCB0B0;}
	.st9{fill:#FEE8B3;}
	.st10{fill:#F96364;}
	.st11{fill:#FDD267;}
	.st12{fill:#A8B1B3;}
	.st13{fill:#7C8B8D;}
	.st14{fill:#FB8A8A;}
	.st15{fill:#FCB1B1;}
	.st16{fill:#F96363;}
</style>
<title/>
<g>
<g>
<rect class="st0" height="367.4" width="309.1" x="164.7" y="72.3"/>
<path class="st1" d="M473.8,33.9v38.4H164.7V33.9c0-16.5,13.4-29.9,29.9-29.9h249.3C460.4,4,473.8,17.4,473.8,33.9z"/>
<path class="st2" d="M361.4,42.1h-84.2c-2.2,0-4-1.8-4-4s1.8-4,4-4h84.2c2.2,0,4,1.8,4,4S363.6,42.1,361.4,42.1L361.4,42.1z"/>
<path class="st2" d="M385.5,42.1h-6.2c-2.2,0-4-1.8-4-4s1.8-4,4-4h6.2c2.2,0,4,1.8,4,4S387.8,42.1,385.5,42.1z"/>
<path class="st1" d="M164.7,439.7v38.4c0,16.5,13.4,29.9,29.9,29.9h249.3c16.5,0,29.9-13.4,29.9-29.9l0,0v-38.4H164.7z"/>
<path class="st3" d="M224.9,508h-30.3c-16.5,0-29.9-13.4-29.9-29.9v-38.4H195v38.4C195,494.6,208.3,508,224.9,508z"/>
<path class="st4" d="M473.8,439.7v38.4c0,16.5-13.4,29.9-29.9,29.9l0,0h-30.3c16.5,0,29.9-13.4,30-29.9v-38.4H473.8z"/>
<path class="st3" d="M224.9,4C208.4,4,195,17.4,195,33.9l0,0v38.4h-30.3V33.9c0-16.5,13.4-29.9,29.9-29.9l0,0    C194.6,4,224.9,4,224.9,4z"/>
<path class="st4" d="M473.8,33.9v38.4h-30.3V33.9c0-16.5-13.4-29.9-29.9-29.9h30.3C460.4,4,473.8,17.4,473.8,33.9z"/>
<circle class="st5" cx="319.2" cy="473.9" r="19.2"/>
<path class="st2" d="M319.2,450.7c-12.8,0-23.2,10.4-23.2,23.2s10.4,23.2,23.2,23.2c12.8,0,23.2-10.4,23.2-23.2l0,0    C342.4,461.1,332.1,450.7,319.2,450.7L319.2,450.7z M319.2,489.1c-8.4,0-15.2-6.8-15.2-15.2s6.8-15.2,15.2-15.2    c8.4,0,15.2,6.8,15.2,15.2C334.4,482.3,327.6,489.1,319.2,489.1z"/>
<g>
<path class="st6" d="M189.3,143.2h52v13.7c-0.1,14.3-11.8,25.9-26.1,25.8c-14.2-0.1-25.7-11.6-25.8-25.8L189.3,143.2z"/>
<path class="st6" d="M449.1,143.2v13.5c0,14.3-11.6,26-26,26s-26-11.6-26-26v-13.5H449.1z"/>
<path class="st6" d="M293.3,143.2h52v13.5c0,14.3-11.6,26-26,26s-26-11.6-26-26V143.2z"/>
<path class="st7" d="M137.4,143.2h52v13.5c0,14.3-11.6,26-26,26s-26-11.6-26-26V143.2z"/>
<path class="st7" d="M345.2,143.2h52v13.7c-0.1,14.3-11.8,25.9-26.1,25.8c-14.2-0.1-25.7-11.6-25.8-25.8L345.2,143.2z"/>
<path class="st7" d="M241.3,143.2h52v13.7c-0.1,14.3-11.8,25.9-26.1,25.8c-14.2-0.1-25.7-11.6-25.8-25.8L241.3,143.2L241.3,143.2     z"/>
<path class="st7" d="M501.1,143.2v13.7c-0.1,14.3-11.8,25.9-26.1,25.8c-14.2-0.1-25.7-11.6-25.8-25.8v-13.7H501.1z"/>
<polygon class="st7" points="208.7,72.3 189.3,143.2 137.4,143.2 164.5,72.3    "/>
<polygon class="st6" points="252.9,72.3 241.3,143.2 189.3,143.2 208.7,72.3    "/>
<polygon class="st7" points="297.1,72.3 293.3,143.2 241.3,143.2 252.9,72.3    "/>
<polygon class="st6" points="341.3,72.3 345.2,143.2 293.3,143.2 297.1,72.3    "/>
<polygon class="st7" points="385.5,72.3 397.2,143.2 345.2,143.2 341.3,72.3    "/>
<polygon class="st6" points="449.1,143.2 397.2,143.2 385.5,72.3 429.7,72.3    "/>
<polygon class="st7" points="473.9,72.3 501.1,143.2 449.1,143.2 429.7,72.3    "/>
<path class="st8" d="M221.6,181.9c-2.1,0.5-4.2,0.8-6.3,0.8c-14.3,0-26-11.6-26-26v-13.5h12.6v13.5     C201.9,168.6,210,179,221.6,181.9z"/>
<path class="st8" d="M429.4,181.9c-2.1,0.5-4.2,0.8-6.3,0.8c-14.3,0-26-11.6-26-26v-13.5h12.6v13.5     C409.7,168.6,417.9,179,429.4,181.9z"/>
<path class="st8" d="M325.6,181.9c-2.1,0.5-4.2,0.8-6.3,0.8c-14.3,0-26-11.6-26-26v-13.5h12.6v13.5     C305.9,168.6,314,179,325.6,181.9z"/>
<path class="st9" d="M169.7,181.9c-2.1,0.5-4.2,0.8-6.3,0.8c-14.3,0-26-11.6-26-26v-13.5H150v13.5     C149.9,168.6,158.1,179,169.7,181.9z"/>
<path class="st9" d="M377.5,181.9c-2.1,0.5-4.2,0.8-6.3,0.8c-14.3,0-26-11.6-26-26v-13.5h12.6v13.5     C357.8,168.6,365.9,179,377.5,181.9z"/>
<path class="st9" d="M273.6,181.9c-2.1,0.5-4.2,0.8-6.3,0.8c-14.3,0-26-11.6-26-26v-13.5h12.6v13.5     C253.9,168.6,262,179,273.6,181.9z"/>
<path class="st9" d="M481.5,181.9c-2.1,0.5-4.2,0.8-6.3,0.8c-14.3,0-26-11.6-26-26v-13.5h12.6v13.5     C461.8,168.6,469.9,179,481.5,181.9z"/>
<polygon class="st9" points="176.8,72.3 149.9,143.2 137.4,143.2 164.5,72.3    "/>
<polygon class="st8" points="221,72.3 201.9,143.2 201.9,143.2 189.3,143.2 189.3,143.2 208.7,72.3    "/>
<polygon class="st9" points="265.2,72.3 253.9,143.2 241.3,143.2 252.9,72.3    "/>
<polygon class="st8" points="309.4,72.3 305.8,143.2 293.3,143.2 297.1,72.3    "/>
<polygon class="st9" points="357.8,143.2 345.2,143.2 341.3,72.3 353.6,72.3    "/>
<polygon class="st8" points="409.7,143.2 397.2,143.2 385.5,72.3 397.8,72.3    "/>
<polygon class="st9" points="461.7,143.2 449.1,143.2 429.7,72.3 442,72.3    "/>
<path class="st10" d="M241.3,143.2v13.5c0,14.3-11.6,26-26,26c-2.1,0-4.2-0.3-6.3-0.8c4.6-1.2,8.7-3.5,12.1-6.9     c4.9-4.9,7.6-11.5,7.6-18.4v-13.4L241.3,143.2L241.3,143.2z"/>
<path class="st10" d="M449.1,143.2v13.5c0,14.3-11.6,26-26,26c-2.1,0-4.2-0.3-6.3-0.8c4.6-1.2,8.7-3.5,12.1-6.9     c4.9-4.9,7.6-11.5,7.6-18.4v-13.4L449.1,143.2L449.1,143.2z"/>
<path class="st10" d="M345.3,143.2v13.5c0,14.3-11.6,26-26,26c-2.1,0-4.2-0.3-6.3-0.8c4.6-1.2,8.7-3.5,12.1-6.9     c4.9-4.9,7.6-11.5,7.6-18.4v-13.4L345.3,143.2L345.3,143.2z"/>
<path class="st11" d="M189.4,143.2v13.5c0,14.3-11.6,26-26,26c-2.1,0-4.2-0.3-6.3-0.8c4.6-1.2,8.7-3.5,12.1-6.9     c4.9-4.9,7.6-11.5,7.6-18.4v-13.4L189.4,143.2L189.4,143.2z"/>
<path class="st11" d="M397.2,143.2v13.5c0,14.3-11.6,26-26,26c-2.1,0-4.2-0.3-6.3-0.8c4.6-1.2,8.7-3.5,12.1-6.9     c4.9-4.9,7.6-11.5,7.6-18.4v-13.4L397.2,143.2L397.2,143.2z"/>
<path class="st11" d="M293.3,143.2v13.5c0,14.3-11.6,26-26,26c-2.1,0-4.2-0.3-6.3-0.8c4.6-1.2,8.7-3.5,12.1-6.9     c4.9-4.9,7.6-11.5,7.6-18.4v-13.4L293.3,143.2L293.3,143.2z"/>
<path class="st11" d="M488.5,143.2h12.6v13.5c0,14.3-11.6,26-26,26c-2.1,0-4.2-0.3-6.3-0.8c4.6-1.2,8.7-3.5,12.1-6.9     c4.9-4.9,7.6-11.5,7.6-18.4L488.5,143.2L488.5,143.2z"/>
<polygon class="st11" points="208.7,72.3 189.3,143.2 176.8,143.2 196.5,72.3    "/>
<polygon class="st10" points="252.9,72.3 241.3,143.2 241.3,143.2 228.7,143.2 228.7,143.2 240.7,72.3    "/>
<polygon class="st11" points="297.1,72.3 293.3,143.2 280.7,143.2 284.9,72.3    "/>
<polygon class="st10" points="345.2,143.2 332.7,143.2 329.1,72.3 341.3,72.3    "/>
<polygon class="st11" points="397.2,143.2 384.6,143.2 373.3,72.3 385.5,72.3    "/>
<polygon class="st10" points="449.1,143.2 436.6,143.2 417.5,72.3 429.7,72.3    "/>
<polygon class="st11" points="501.1,143.2 488.5,143.2 461.7,72.3 473.9,72.3    "/>
</g>
<path class="st12" d="M249.8,420.2c0,10.8-8.7,19.5-19.5,19.5s-19.5-8.7-19.5-19.5s8.7-19.5,19.5-19.5S249.8,409.4,249.8,420.2    L249.8,420.2z"/>
<path class="st12" d="M131.4,420.2c0,10.8-8.7,19.5-19.5,19.5s-19.5-8.7-19.5-19.5s8.7-19.5,19.5-19.5l0,0    C122.7,400.7,131.4,409.4,131.4,420.2L131.4,420.2z"/>
<path class="st13" d="M249.8,420.2c0,10.8-8.8,19.5-19.5,19.5c-7.7,0-14.7-4.5-17.8-11.6c9.8,4.4,21.4,0,25.8-9.8    c2.3-5.1,2.3-10.9,0-16C245.3,405.5,249.8,412.5,249.8,420.2z"/>
<path class="st13" d="M131.4,420.2c0,10.8-8.8,19.5-19.5,19.5c-7.7,0-14.7-4.5-17.8-11.6c9.8,4.4,21.4,0,25.8-9.8    c2.3-5.1,2.3-10.9,0-16C126.9,405.5,131.4,412.5,131.4,420.2z"/>
<path class="st14" d="M301.4,238.5l-25.5,107.7c-1.3,5.3-6,9.1-11.5,9.1H91c-6,0-11.8,2.4-16,6.6c-1.4,1.4-2.7,3-3.6,4.8L95.2,224    h194.7c6.5,0,11.8,5.3,11.8,11.8C301.7,236.7,301.6,237.6,301.4,238.5z"/>
<path class="st15" d="M123,224l-22,131.3H91c-6,0-11.8,2.4-16,6.6c-1.4,1.4-2.7,3-3.6,4.8L95.2,224H123z"/>
<path class="st16" d="M301.4,238.5l-25.5,107.7c-1.3,5.3-6,9.1-11.5,9.1h-27.8c5.5,0,10.2-3.8,11.5-9.1l25.5-107.7    c1.5-6.4-2.4-12.7-8.8-14.2c-0.9-0.2-1.8-0.3-2.7-0.3h27.8c6.5,0,11.8,5.3,11.8,11.8C301.7,236.7,301.6,237.6,301.4,238.5z"/>
<path class="st2" d="M39.5,357.9H10.9c-2.2,0-4-1.8-4-4s1.8-4,4-4h28.6c2.2,0,4,1.8,4,4S41.7,357.9,39.5,357.9z"/>
<path class="st2" d="M48.6,335.8H10.9c-2.2,0-4-1.8-4-4s1.8-4,4-4h37.7c2.2,0,4,1.8,4,4S50.9,335.8,48.6,335.8z"/>
<path class="st2" d="M57.7,313.7H10.9c-2.2,0-4-1.8-4-4s1.8-4,4-4h46.8c2.2,0,4,1.8,4,4S59.9,313.7,57.7,313.7z"/>
<path class="st2" d="M66.8,291.7H10.9c-2.2,0-4-1.8-4-4s1.8-4,4-4h55.9c2.2,0,4,1.8,4,4S69,291.7,66.8,291.7z"/>
</g>
<g>
<path class="st2" d="M504.8,141.7l-27-70.6V33.9c0-18.7-15.2-33.9-33.9-33.9H194.6c-18.7,0-33.9,15.2-33.9,33.9v37.2l-27,70.6    c-0.1,0.4-0.2,0.9-0.2,1.3v13.8c0,15.5,11.8,28.5,27.3,29.9V220H99.9l5.6-33.6c2.1-12.8-6.5-25-19.4-27.1    c-1.3-0.2-2.6-0.3-3.9-0.3H46.7c-2.2,0-4,1.8-4,4s1.8,4,4,4h35.5c8.6,0,15.6,7,15.6,15.6c0,0.9-0.1,1.7-0.2,2.6L67.5,365.5    c-2.1,3.9-3.2,8.2-3.2,12.5c0,14.8,12,26.7,26.7,26.7h3.2c-8.6,9.7-7.7,24.6,2.1,33.2c9.7,8.6,24.6,7.7,33.2-2.1    c7.8-8.9,7.8-22.2,0-31.1h31.1v73.4c0,18.7,15.2,33.9,33.9,33.9h249.3c18.7,0,33.9-15.2,33.9-33.9V186.7    c15.4-1.4,27.3-14.4,27.3-29.9V143C505.1,142.6,505,142.2,504.8,141.7z M495.3,139.1h-43.1L435,76.2h36.2L495.3,139.1z     M349.2,147.2h44v9.6c0,12.1-9.8,22-22,22c-12.1,0-22-9.8-22-22V147.2z M349,139.2l-3.4-62.3v-0.6h36.6l10.3,62.9H349z     M390.2,76.2h36.4l17.2,62.9h-43.3L390.2,76.2z M401.2,147.2h44v9.6c0,12.1-9.8,22-22,22c-12.1,0-22-9.8-22-22V147.2z M168.7,33.9    c0-14.3,11.6-25.9,25.9-25.9h249.3c14.3,0,25.9,11.6,25.9,25.9v34.4H168.7V33.9z M341.2,147.2v9.6c0.1,12.1-9.7,22-21.8,22.1    c-12.1,0.1-22-9.7-22.1-21.8v-9.9H341.2z M297.5,139.2v-0.6l3.4-62.3h36.6l3.4,62.3v0.6H297.5z M194.6,139.2l17.2-62.9h36.4    l-10.3,62.9H194.6z M237.3,147.2v9.6c0.1,12.1-9.7,22-21.8,22.1c-12.1,0.1-22-9.7-22.1-21.8v-9.9H237.3z M246,139.2l10.3-62.9    h36.6v0.6l-3.4,62.3H246z M289.3,147.2v9.6c0.1,12.1-9.7,22-21.8,22.1c-12.1,0.1-22-9.7-22.1-21.8l-0.1-9.9H289.3z M167.3,76.2    h36.2l-17.2,62.9h-43.1L167.3,76.2z M141.4,156.8v-9.6h43.9v9.6c0,12.1-9.8,22-22,22S141.4,168.9,141.4,156.8z M79.4,342.7    L98.6,228h191.3c4.3,0,7.8,3.5,7.8,7.8c0,0.6-0.1,1.2-0.2,1.8L272,345.3c-0.8,3.5-4,6-7.6,6H91c-4.8,0-9.6,1.3-13.7,3.8    L79.4,342.7z M111.9,435.7c-8.6,0-15.5-7-15.5-15.5s6.8-15.4,15.3-15.5h0.3c8.6,0.1,15.4,7.1,15.3,15.7    C127.3,428.9,120.4,435.7,111.9,435.7z M160.7,396.7H91c-10.3,0-18.7-8.4-18.7-18.7c0-3.6,1-7,3-10c0.2-0.2,0.3-0.5,0.5-0.7    c3.5-5,9.2-8,15.3-8h69.6V396.7z M168.6,359.3h95.7c7.3,0,13.7-5,15.4-12.2l25.5-107.7c0.3-1.2,0.4-2.4,0.4-3.6    c0-7.2-4.9-13.7-12.2-15.4c-1.2-0.3-2.4-0.4-3.6-0.4H168.7v-33.7c6-1.1,11.5-4,15.8-8.3c1.9-1.9,3.5-4,4.8-6.3    c8.2,14.3,26.4,19.3,40.7,11.2c2.3-1.3,4.5-3,6.4-4.9c1.9-1.9,3.5-4,4.8-6.3c8.2,14.3,26.4,19.3,40.7,11.2c2.3-1.3,4.5-3,6.4-4.9    c1.9-1.9,3.5-4,4.8-6.3c8.2,14.3,26.4,19.3,40.7,11.2c2.3-1.3,4.5-3,6.4-4.9c1.9-1.9,3.5-4,4.8-6.3c8.2,14.3,26.4,19.3,40.7,11.2    c2.3-1.3,4.5-3,6.4-4.9c1.9-1.9,3.5-4,4.8-6.3c8.2,14.3,26.4,19.3,40.7,11.2c2.3-1.3,4.5-3,6.4-4.9c1.9-1.8,3.5-4,4.8-6.3    c4.4,7.7,12,13,20.7,14.6v249.4H247.9c8.6-9.7,7.7-24.5-2-33.1c-4.3-3.8-9.9-5.9-15.6-5.9c-0.1,0-61.7,0-61.7,0V359.3z M246,420.1    c0,8.6-6.9,15.5-15.4,15.6h-0.3c-8.7-0.1-15.5-7-15.5-15.5s6.9-15.4,15.4-15.5h0.2c4.3,0,8.2,1.7,11,4.5    C244.2,412,246,415.8,246,420.1z M212.7,435.7h-44v-31h44C204.8,413.6,204.8,426.9,212.7,435.7z M469.8,478.1    c0,14.3-11.6,25.9-25.9,25.9H194.6c-14.3,0-25.9-11.6-25.9-25.9v-34.4h301.1V478.1z M497.1,156.8c0,12.1-9.8,22-22,22    c-12.1,0-22-9.8-22-22v-9.7h44V156.8z"/>
</g>
</g>
</svg>