<svg width="32" height="32" viewBox="0 0 32 32" fill="none" xmlns="http://www.w3.org/2000/svg">
<g clip-path="url(#clip0_530_9)">
<mask id="mask0_530_9" style="mask-type:luminance" maskUnits="userSpaceOnUse" x="0" y="0" width="32" height="32">
<path d="M32 0H0V32H32V0Z" fill="white"/>
</mask>
<g mask="url(#mask0_530_9)">
<path fill-rule="evenodd" clip-rule="evenodd" d="M4.31676 9.71022C3.21208 10.2282 2.14271 10.8194 1.11566 11.4798C3.32109 19.9386 8.6335 27.2687 15.9166 31.9995C19.0807 29.9659 21.9004 27.4344 24.2685 24.5014C19.8369 22.3564 16.1601 18.9012 13.7288 14.5968C11.2976 10.2925 10.2275 5.34387 10.6613 0.411133C6.9412 0.988688 3.33986 2.17518 0 3.92362C0.0507235 5.21564 0.170784 6.50397 0.359659 7.78293C2.49282 6.53844 4.76418 5.5515 7.1267 4.84251C7.80969 13.2909 12.2254 20.6734 18.711 25.315C17.8287 26.1526 16.8992 26.938 15.927 27.6674C10.0983 23.2305 5.96925 16.872 4.31667 9.70989L4.31676 9.71022Z" fill="#4682B4"/>
<path fill-rule="evenodd" clip-rule="evenodd" d="M14.2483 0.044128C13.1586 9.14872 18.1009 17.8755 26.3903 21.5719C27.0393 20.5703 27.6379 19.5364 28.1836 18.4741C25.2227 17.2358 22.6667 15.1849 20.8066 12.555C18.9465 9.92504 17.8573 6.82182 17.663 3.59881C21.1214 3.78046 24.5256 4.54174 27.7353 5.85133C25.921 6.71249 24.1485 7.33194 22.2196 7.85213C24.2528 12.772 26.0306 12.3993 29.7373 14.9825C30.1745 13.8303 30.5521 12.656 30.8687 11.4645C29.8629 10.8231 28.8182 10.2461 27.7405 9.73701C29.0738 9.18287 30.3711 8.54449 31.6246 7.82579C31.8226 6.53174 31.9479 5.22751 31.9998 3.91924C26.5204 1.05239 20.4103 -0.26555 14.2481 0.0443044L14.2483 0.044128Z" fill="#4682B4"/>
</g>
</g>
<defs>
<clipPath id="clip0_530_9">
<rect width="32" height="32" fill="white"/>
</clipPath>
</defs>
</svg>
