<svg xmlns="http://www.w3.org/2000/svg" width="45" height="50" fill="none"><path fill="#000" fill-rule="evenodd" d="M0 7.5A7.5 7.5 0 0 1 7.5 0h30A7.5 7.5 0 0 1 45 7.5v35a7.5 7.5 0 0 1-7.5 7.5h-30A7.5 7.5 0 0 1 0 42.5v-35ZM7.5 5A2.5 2.5 0 0 0 5 7.5v35A2.5 2.5 0 0 0 7.5 45h30a2.5 2.5 0 0 0 2.5-2.5v-35A2.5 2.5 0 0 0 37.5 5H30v20a2.5 2.5 0 0 1-4.268 1.768L20 21.035l-5.732 5.733A2.5 2.5 0 0 1 10 25V5H7.5ZM15 5v13.965l3.232-3.233a2.5 2.5 0 0 1 3.536 0L25 18.965V5H15Z" clip-rule="evenodd"/><path fill="#09F" fill-rule="evenodd" d="M15 0h-5v25a2.5 2.5 0 0 0 4.268 1.768L20 21.035l5.732 5.733A2.5 2.5 0 0 0 30 25.004V0h-5v18.965l-3.232-3.233a2.5 2.5 0 0 0-3.536 0L15 18.965V0Z" clip-rule="evenodd"/><path fill="#000" d="M6.714 0h24.571v5H6.714z"/></svg>