<svg width="30" height="59" viewBox="0 0 30 59" fill="none" xmlns="http://www.w3.org/2000/svg">
<path d="M0 50.1306C0 50.9885 0.547053 51.7508 1.35974 52.0254L19.3597 58.1078C20.6563 58.5459 22 57.5817 22 56.2131V38.6071V22.8693C22 22.0115 21.4529 21.2492 20.6403 20.9746L2.64026 14.8922C1.3437 14.4541 0 15.4183 0 16.7869V50.1306Z" fill="#C3D5C6"/>
<rect y="14" width="30" height="38" rx="2" fill="#A4BFA8"/>
<path d="M0 15.5065C0 14.9449 0.236119 14.4092 0.650641 14.0303L12.6506 3.06153C13.9341 1.88835 16 2.79888 16 4.53775V21.375V38.4935C16 39.0551 15.7639 39.5908 15.3494 39.9697L3.34936 50.9385C2.06589 52.1116 0 51.2011 0 49.4623V15.5065Z" fill="#87AB8C"/>
</svg>
