<?xml version="1.0" encoding="utf-8"?>
<!-- Uploaded to: SVG Repo, www.svgrepo.com, Generator: SVG Repo Mixer Tools -->
<svg version="1.1" id="Uploaded to svgrepo.com" xmlns="http://www.w3.org/2000/svg" xmlns:xlink="http://www.w3.org/1999/xlink" 
	 width="800px" height="800px" viewBox="0 0 32 32" xml:space="preserve">
<style type="text/css">
	.hatch_een{fill:#265AA5;}
	.hatch_twee{fill:#FFC5BB;}
</style>
<g>
	<path class="hatch_twee" d="M29.15,13.912l-0.482,1.896L22.476,22h-1.414L29.15,13.912z M18.476,22l11.007-11.007L28.062,11l-11,11
		H18.476z M25.062,22h1.414l0.831-0.831l0.48-1.894L25.062,22z M13.062,22h1.414l11-11h-1.414L13.062,22z M13.476,11h-1.414
		l-3.707,3.707l0.307,1.107L13.476,11z M17.476,11h-1.414l-6.838,6.838l0.307,1.107L17.476,11z M9.476,11H8.062l-0.577,0.577
		l0.307,1.107L9.476,11z M20.062,11l-9.968,9.968L10.38,22h0.096l11-11H20.062z"/>
	<path class="hatch_een" d="M14,26.5c0,0.837-0.672,1.5-1.5,1.5S11,27.328,11,26.5s0.667-1.5,1.5-1.5S14,25.663,14,26.5z M10,26.5
		c0,1.379,1.122,2.5,2.5,2.5s2.5-1.121,2.5-2.5S13.876,24,12.5,24S10,25.121,10,26.5z M31,10.602c0.031-0.147,0.095-0.301,0-0.417
		C30.905,10.068,30.651,10,30.5,10H7.047L5.482,4.366C5.422,4.15,5.225,4,5,4H1.5C1.224,4,1,4.224,1,4.5S1.224,5,1.5,5h3.12
		l4.898,17.634C9.578,22.85,9.775,23,10,23h17.5c0.241,0,0.432-0.173,0.48-0.4L31,10.602z M7.325,11h22.561l-2.792,11H10.38
		L7.325,11z M26,26.5c0,0.837-0.672,1.5-1.5,1.5S23,27.328,23,26.5s0.667-1.5,1.5-1.5S26,25.663,26,26.5z M22,26.5
		c0,1.379,1.122,2.5,2.5,2.5s2.5-1.121,2.5-2.5S25.876,24,24.5,24S22,25.121,22,26.5z"/>
</g>
</svg>