<svg version="1.0" xmlns="http://www.w3.org/2000/svg" width="170.667" height="170.667" viewBox="0 0 128 128"><g fill="#fff"><path d="M2.6 2.1C1.8 5.6 1.4 128 2.1 128 2.9 128 4.4 1.1 3.7.3c-.4-.3-.8.5-1.1 1.8zM8.6 44.7c-.3 24.7-.9 53.5-1.2 64.1-.4 12.5-.3 19.2.4 19.2.6 0 1.2-17.4 1.6-48.8.3-26.8.9-55.6 1.2-64C11 5.4 10.9 0 10.2 0 9.6 0 9 16.2 8.6 44.7zM63.3 46.4c-6.3 3.7-12.8 9.3-19.5 17.1-7.3 8.6-10.1 13.6-9.2 17 .9 3.5 7.9 11.2 11 11.9 3.1.8 9.3-2.5 14.3-7.8 4.1-4.2 4.7-4.4 5.5-1.2.3 1.3 2.4 4 4.6 6 5.9 5.3 8.7 5 16.1-2.1 6.5-6.2 17.4-19.1 16.7-19.8-.2-.2-4.2 3.9-8.8 9.2-8.7 9.8-13.5 14.1-14.6 13.1-1-1 .5-4.4 4.8-10.8 3.1-4.7 3.9-6.6 3.4-8.7-.9-3.3-5.9-8.3-8.4-8.3-1.2 0-5.1 3.9-10.7 10.6C58.7 84.2 53.3 89 50 89c-2.9 0-2-2.7 3.5-10.5C60.7 68.3 75.3 56 80.2 56c1.5 0 1.6-.4.7-2.8-.6-1.5-2.4-4.2-4.2-6-3.8-3.9-7.5-4.2-13.4-.8z"/></g></svg>