<?xml version="1.0" encoding="utf-8"?>
<!-- Svg Vector Icons : http://www.onlinewebfonts.com/icon -->
<!DOCTYPE svg PUBLIC "-//W3C//DTD SVG 1.1//EN" "http://www.w3.org/Graphics/SVG/1.1/DTD/svg11.dtd">
<svg version="1.1" xmlns="http://www.w3.org/2000/svg" xmlns:xlink="http://www.w3.org/1999/xlink" x="0px" y="0px" viewBox="0 0 1000 1000" enable-background="new 0 0 1000 1000" xml:space="preserve">
<metadata> Svg Vector Icons : http://www.onlinewebfonts.com/icon </metadata>
<g><g><g><path d="M604.2,748.8c-0.5,0.5-13.1,13.7-37.4,16.7c-23.2,2.9-50.9-8.7-55.1-31.1c-0.1-0.3-0.4-0.4-0.5-0.7c23.4-9.4,46.5-37.1,46.5-48.9c0-29.5-22.4-35.3-61.1-35.3c-49.2,0-61.3,6.9-61.3,35.3c0,14,23.5,39.6,46.9,48.4c-0.2,0.5-0.7,0.7-0.8,1.2c-4.4,23.1-31.8,34.1-54.4,31.2c-24.1-3.1-36.7-16.2-37.1-16.6c-5.7-6.3-15.5-6.9-21.8-1.1c-6.3,5.7-6.9,15.4-1.2,21.7c0.8,0.9,20.1,22,56.1,26.6c3.7,0.5,7.5,0.7,11.3,0.7c23.5,0,47.1-9.9,62.3-27.6c15.5,17.6,39.6,27.6,63,27.6c3.7,0,7.4-0.2,11-0.7c36-4.6,55.4-25.7,56.2-26.6c5.6-6.3,5.2-15.8-1.1-21.5C619.8,742.2,610,742.6,604.2,748.8z M496.6,721.7c-20.2,0-45.6-29.7-45.9-37c0-14.9,0-19.9,45.9-19.9c45.7,0,45.7,9.2,45.8,19.6C541,692,515.2,721.7,496.6,721.7z"/><path d="M618,692.9c4.5,0,8.1-3.7,8.1-8.1c0-4.5-3.6-8.1-8.1-8.1c-4.4,0-8.1,3.6-8.1,8.1C609.9,689.2,613.6,692.9,618,692.9z"/><path d="M597.7,732c4.4,0,8-3.7,8-8.1c0-4.5-3.6-8.1-8-8.1c-4.4,0-8.1,3.6-8.1,8.1C589.6,728.4,593.3,732,597.7,732z"/><path d="M634.2,724c0,4.4,3.6,8.1,8.1,8.1c4.4,0,8-3.7,8-8.1c0-4.5-3.6-8.1-8-8.1C637.8,715.9,634.2,719.5,634.2,724z"/><path d="M378.1,676.7c-4.4,0-8.1,3.6-8.1,8.1c0,4.3,3.7,8.1,8.1,8.1c4.4,0,8-3.7,8-8.1C386.1,680.4,382.5,676.7,378.1,676.7z"/><path d="M365.9,724c0-4.5-3.7-8.1-8-8.1c-4.5,0-8.1,3.6-8.1,8.1c0,4.4,3.6,8.1,8.1,8.1C362.2,732,365.9,728.4,365.9,724z"/><path d="M402.4,732c4.4,0,8.1-3.7,8.1-8.1c0-4.5-3.7-8.1-8.1-8.1c-4.3,0-8.1,3.6-8.1,8.1C394.3,728.4,398.1,732,402.4,732z"/><path d="M385.2,562.6c0.2-2.4,5-59.2-36-90.7c-15.4-11.8-33.9-17.8-54.8-17.8c-25.3,0-45,9-45.9,9.3c-2.6,1.2-4.4,3.9-4.5,6.8c-0.1,2.3-1.2,56.9,37.4,85.2c17.7,12.8,38.6,19.3,62,19.3h0c20.8,0,35.9-5.4,36.6-5.5C382.9,568.1,384.9,565.5,385.2,562.6z M336.6,516.4c-10.7,0-19.4-8.7-19.4-19.3c0-10.8,8.7-19.4,19.4-19.4c10.7,0,19.4,8.6,19.4,19.4C356,507.8,347.3,516.4,336.6,516.4z"/><path d="M758.9,462.9c-0.8-0.4-20.6-9.3-45.9-9.3c-20.9,0-39.3,6-54.8,17.8c-40.9,31.5-36.2,88.3-35.9,90.7c0.3,2.9,2.2,5.5,5.1,6.6c0.6,0.2,15.8,5.5,36.6,5.5c23.5,0,44.3-6.5,62-19.4c38.6-28.2,37.5-82.8,37.4-85.1C763.3,466.7,761.6,464.1,758.9,462.9z M736.3,516.4c-10.7,0-19.5-8.7-19.5-19.3c0-10.8,8.8-19.4,19.5-19.4c10.7,0,19.4,8.6,19.4,19.4C755.7,507.8,747,516.4,736.3,516.4z"/><path d="M984.6,636.9c-24-7.4-47.5-12.4-70.5-15.5c17.4-60.2,15.8-132.8-18.6-221.6c57.9-105,32.8-295.8,31.7-304.2c-1.4-10.5-8.1-19.5-17.8-23.9c-9.7-4.5-20.9-3.5-29.7,2.3L690.3,199.1c-54-24.3-125.9-39-192.7-39c-67.5,0-136.1,14.2-191.1,39.3L102.9,73.5c-8.9-5.6-20-6.2-29.3-1.7c-9.4,4.5-16,13.4-17.4,23.7c-1.1,7.9-24.7,188.5,39.9,304.7c-30.3,89.1-31.5,161.4-14.2,221.6c-21.7,3.1-43.9,7.9-66.5,15c-4.1,1.3-6.3,5.5-5.1,9.6c1.3,4.1,5.7,6.4,9.7,5.1c22.6-7,44.9-11.7,66.7-14.6c5,14.2,10.9,27.7,17.8,40.5c-24.8,6.9-49.5,16.3-73.9,28.2c-3.8,1.9-5.4,6.4-3.5,10.3c1.3,2.7,4.1,4.3,6.9,4.3c1.1,0,2.3-0.2,3.4-0.8c24.8-12,49.9-21.3,75.1-28.1c6.3,10.4,13.2,20.5,20.7,30.1c-22.1,10.4-44.3,24.6-66,44.1c-3.2,2.8-3.4,7.7-0.6,10.9c1.5,1.7,3.6,2.5,5.7,2.5c1.8,0,3.7-0.7,5.1-2c21.6-19.4,43.7-33.4,65.5-43.3c41.3,49.2,95.4,88.4,149.4,123.5c42.4,27.6,125.5,74,205.3,74c62.9,0,145.3-29.2,210-74.6c46.6-32.7,102.6-72,146.2-124.4c22.9,10,46.1,24.4,68.8,44.8c1.5,1.3,3.3,2,5.2,2c2.1,0,4.2-0.8,5.7-2.5c2.8-3.2,2.6-8.1-0.5-10.9c-22.8-20.5-46.2-35.2-69.3-45.7c7.2-9.4,13.9-19.3,20.1-29.5c26.5,6.8,52.9,16.4,79,29.1c1.1,0.5,2.2,0.8,3.4,0.8c2.8,0,5.6-1.6,6.9-4.3c1.9-3.9,0.3-8.4-3.5-10.3c-25.7-12.5-51.7-22.2-77.8-29.2c6.8-12.7,12.8-26,17.8-40.1c23,2.9,46.7,7.8,70.6,15.2c4.1,1.3,8.4-1,9.6-5.1C990.9,642.4,988.6,638.2,984.6,636.9z M851,348.7c-19.4-20.2-39.5-34.5-45.4-24.9c-6.3,10.3,9.7,53.5,25.1,81.5c0.6,1.1,1.3,1.1,1.9,1.9c0.2,0.5,0,1.1,0.2,1.7c7.7,18.4,13.3,35.6,18.1,52.2c-21.7-15.1-62.2-31.6-62.2-10.2c0.1,25.1,57.7,98.6,72.9,123.5c-2.1,15.1-5.9,29.3-10.8,42.9c-110.3,0.5-193.8,39.4-205.2,48c-3.4,2.5-4.1,7.3-1.5,10.8c1.5,2,3.8,3.1,6.1,3.1c1.6,0,3.3-0.5,4.6-1.6c10.1-7.5,87.6-42.5,189.5-44.6c-5,11-10.9,21.5-17.6,31.8c-54-5.2-108.7,1-163.4,18.8c-2.6,0.8-4.6,1.5-6,1.9c-4.1,1.1-6.4,5.4-5.3,9.5c1.1,4.1,5.4,6.3,9.5,5.3c1.6-0.4,3.8-1.1,6.6-2c49.7-16.2,99.3-22.6,148.4-19c-5.4,7.2-11.2,14.3-17.4,21.2c-57.1-9.4-106.4,1.4-131.8,7l-5,1.1c-4.2,0.9-6.8,5-5.9,9.1c0.9,4.2,5.1,6.8,9.1,5.9l5.1-1.1c24.5-5.5,66.8-14.8,115.8-8.7c-31.8,32.3-71.2,61.9-114.5,92.3c-54.1,37.9-124.3,63.4-174.6,63.4c-46.7,0-109.2-23.3-171.7-64c-43.2-28.1-84-57.2-117-91c50.9-7.2,94.9,2.4,120.2,8l5.2,1.1c4.1,0.9,8.3-1.7,9.1-5.9c0.9-4.2-1.7-8.2-5.9-9.1l-5.1-1.1c-25.9-5.7-77-16.8-135.8-6.2c-6.1-7-11.8-14.1-17.2-21.5c50.4-4.1,101.3,2,152.3,18.6c2.8,0.9,5,1.6,6.6,2c4,1,8.4-1.3,9.5-5.3c1.2-4.1-1.2-8.4-5.3-9.5c-1.4-0.4-3.5-1.1-6-1.9c-56-18.2-111.8-24.3-167-18.5c-6.5-10.2-12.2-20.9-17.1-32.2c103.4,1.4,182.5,37,192.7,44.6c1.4,1.1,3,1.6,4.6,1.6c2.3,0,4.7-1.1,6.2-3.1c2.6-3.4,1.9-8.2-1.6-10.8c-11.5-8.6-96.4-48.2-208.1-48c-5.8-16.6-10-34.3-11.9-53.3c21.1-30.9,66-91,66.1-113.1c0-19.7-34.4-7.2-56.8,6.8c4-16,8.7-32.5,15.2-50.1c0.5-1.2,0.2-2.5,0.5-3.7c15.1-28,30.6-69.9,24.4-80c-5.8-9.5-25.2,4.2-44.4,23.8c-26-63.1-28.1-144.2-25.9-195.1l175.1,108.2c9.2,5.8,20.8,6.1,30.5,1.1c6.1-3.2,13.4-5.7,20.1-8.6c13.5,22.2,37.7,54.4,46,63.9c14.3,16.6,50.6-66.8,37.7-88.1c10.8-1.9,21.6-3.7,32.6-4.8c-15.5,37.4,13.6,126.8,33.3,108.2c18.1-17.1,60.7-77.6,63.9-106.7c15.3,2,30.6,4.5,45.3,7.9c-8.8,28.5,0.8,76.9-0.2,92.9c-1,16.6,60.8-28.3,85.6-63.6c8.8,2.9,18.5,2.6,26.4-2.7l161.1-106.4C874,211.5,872.3,292.8,851,348.7z"/></g></g><g></g><g></g><g></g><g></g><g></g><g></g><g></g><g></g><g></g><g></g><g></g><g></g><g></g><g></g><g></g></g>
</svg>