<svg width="66" height="15" viewBox="0 0 66 15" fill="none" xmlns="http://www.w3.org/2000/svg">
<path id="Arrow 1" d="M1 6.5C0.447715 6.5 0 6.94772 0 7.5C0 8.05228 0.447715 8.5 1 8.5V6.5ZM65.7071 8.20711C66.0976 7.81658 66.0976 7.18342 65.7071 6.79289L59.3431 0.428932C58.9526 0.0384078 58.3195 0.0384078 57.9289 0.428932C57.5384 0.819457 57.5384 1.45262 57.9289 1.84315L63.5858 7.5L57.9289 13.1569C57.5384 13.5474 57.5384 14.1805 57.9289 14.5711C58.3195 14.9616 58.9526 14.9616 59.3431 14.5711L65.7071 8.20711ZM1 8.5H65V6.5H1V8.5Z" fill="black"/>
</svg>
