<svg width="47" height="48" viewBox="0 0 47 48" fill="none" xmlns="http://www.w3.org/2000/svg">
<path d="M-1 0H23C36.2548 0 47 10.7452 47 24C47 37.2548 36.2548 48 23 48H-1V0Z" fill="#C96234"/>
<path d="M13 16.6C13 16.0399 13 15.7599 13.109 15.546C13.2049 15.3578 13.3578 15.2049 13.546 15.109C13.7599 15 14.0399 15 14.6 15H31.4C31.9601 15 32.2401 15 32.454 15.109C32.6422 15.2049 32.7951 15.3578 32.891 15.546C33 15.7599 33 16.0399 33 16.6V17.2694C33 17.5382 33 17.6726 32.9672 17.7976C32.938 17.9083 32.8901 18.0132 32.8255 18.1078C32.7526 18.2144 32.651 18.3025 32.4479 18.4785L26.0521 24.0215C25.849 24.1975 25.7474 24.2856 25.6745 24.3922C25.6099 24.4868 25.562 24.5917 25.5328 24.7024C25.5 24.8274 25.5 24.9618 25.5 25.2306V30.4584C25.5 30.6539 25.5 30.7517 25.4685 30.8363C25.4406 30.911 25.3953 30.9779 25.3363 31.0315C25.2695 31.0922 25.1787 31.1285 24.9971 31.2012L21.5971 32.5612C21.2296 32.7082 21.0458 32.7817 20.8983 32.751C20.7693 32.7242 20.6561 32.6476 20.5833 32.5377C20.5 32.4122 20.5 32.2142 20.5 31.8184V25.2306C20.5 24.9618 20.5 24.8274 20.4672 24.7024C20.438 24.5917 20.3901 24.4868 20.3255 24.3922C20.2526 24.2856 20.151 24.1975 19.9479 24.0215L13.5521 18.4785C13.349 18.3025 13.2474 18.2144 13.1745 18.1078C13.1099 18.0132 13.062 17.9083 13.0328 17.7976C13 17.6726 13 17.5382 13 17.2694V16.6Z" stroke="#1C2A39" stroke-width="1.5" stroke-linecap="round" stroke-linejoin="round"/>
</svg>
