<svg width="15" height="15" viewBox="0 0 15 15" fill="none" xmlns="http://www.w3.org/2000/svg">
<path id="search" fill-rule="evenodd" clip-rule="evenodd" d="M12 6.64648C12 9.68405 9.53757 12.1465 6.5 12.1465C3.46243 12.1465 1 9.68405 1 6.64648C1 3.60892 3.46243 1.14648 6.5 1.14648C9.53757 1.14648 12 3.60892 12 6.64648ZM10.8845 11.4451C9.72859 12.5018 8.18957 13.1465 6.5 13.1465C2.91015 13.1465 0 10.2363 0 6.64648C0 3.05663 2.91015 0.146484 6.5 0.146484C10.0899 0.146484 13 3.05663 13 6.64648C13 8.18666 12.4643 9.60172 11.5691 10.7155L15 14.1464L14.2929 14.8535L10.8845 11.4451Z" fill="#5C6A79"/>
</svg>
