<?xml version="1.0" encoding="UTF-8" standalone="no"?> <svg width="48" height="48" viewBox="0 0 48 48" fill="none" xmlns="http://www.w3.org/2000/svg">
<path d="M44 10H42V7C42 6.73478 41.8946 6.48043 41.7071 6.29289C41.5196 6.10536 41.2652 6 41 6C37.909 6.06381 34.8299 6.40518 31.8 7.02C28.9463 7.59732 26.272 8.84842 24 10.669C21.728 8.84842 19.0537 7.59732 16.2 7.02C13.1701 6.40518 10.091 6.06381 7 6C6.73478 6 6.48043 6.10536 6.29289 6.29289C6.10536 6.48043 6 6.73478 6 7V10H4C3.46957 10 2.96086 10.2107 2.58579 10.5858C2.21071 10.9609 2 11.4696 2 12V35.071C2.00172 35.5728 2.19139 36.0558 2.53161 36.4248C2.87184 36.7937 3.33793 37.0217 3.838 37.064C5.573 37.2 8.918 37.5 11.838 37.986C14.759 38.413 17.525 39.57 19.88 41.35C20.4094 41.7722 21.0668 42.0015 21.744 42H26.256C26.933 42.0015 27.5904 41.7727 28.12 41.351C30.4755 39.5697 33.2427 38.4122 36.165 37.986C39.082 37.5 42.427 37.2 44.165 37.064C44.6645 37.021 45.1299 36.7927 45.4695 36.4238C45.8091 36.055 45.9983 35.5724 46 35.071V12C46 11.4696 45.7893 10.9609 45.4142 10.5858C45.0391 10.2107 44.5304 10 44 10ZM32.2 8.98C34.7729 8.47028 37.38 8.15241 40 8.029V31.029C37.2452 31.1529 34.5039 31.4872 31.8 32.029C29.3596 32.5227 27.0456 33.5095 25 34.929V12.441C27.0742 10.7055 29.5491 9.51576 32.2 8.98V8.98ZM8 8.029C10.62 8.15241 13.2271 8.47028 15.8 8.98C18.4497 9.52037 20.9238 10.7103 23 12.443V34.924C20.9544 33.5045 18.6404 32.5177 16.2 32.024C13.4961 31.4822 10.7548 31.1479 8 31.024V8.029ZM35.835 36.014C32.575 36.4993 29.4899 37.7987 26.865 39.792C26.6921 39.9296 26.4769 40.0031 26.256 40H21.744C21.5228 40.0029 21.3073 39.9295 21.134 39.792C18.5096 37.7984 15.4248 36.499 12.165 36.014C9.172 35.514 5.765 35.208 4 35.071V12H6V32C6 32.2652 6.10536 32.5196 6.29289 32.7071C6.48043 32.8946 6.73478 33 7 33C9.95632 33.0691 12.9009 33.397 15.8 33.98C18.5826 34.5379 21.1673 35.8244 23.29 37.708C23.4775 37.8952 23.7316 38.0003 23.9965 38.0003C24.2614 38.0003 24.5155 37.8952 24.703 37.708C26.8238 35.8175 29.4127 34.5301 32.2 33.98C35.0991 33.397 38.0437 33.0691 41 33C41.2652 33 41.5196 32.8946 41.7071 32.7071C41.8946 32.5196 42 32.2652 42 32V12H44L44.005 35.07C42.239 35.208 38.828 35.515 35.835 36.014Z" fill="black"/>
<path d="M20 30.34C20.2262 30.3396 20.4456 30.2625 20.6223 30.1213C20.799 29.9801 20.9226 29.7832 20.973 29.5627C21.0234 29.3422 20.9975 29.1111 20.8996 28.9072C20.8017 28.7033 20.6376 28.5386 20.434 28.44C19.0873 27.7923 17.6649 27.3153 16.2 27.02C14.6 26.698 12.882 26.441 11.108 26.255C10.8441 26.2274 10.5801 26.3058 10.374 26.4729C10.1679 26.64 10.0366 26.8821 10.009 27.146C9.98142 27.4099 10.0598 27.6739 10.2269 27.88C10.394 28.0861 10.6361 28.2174 10.9 28.245C12.613 28.424 14.264 28.672 15.8 28.98C17.1026 29.2421 18.3673 29.6657 19.565 30.241C19.7007 30.3063 19.8494 30.3402 20 30.34Z" fill="black"/>
<path d="M36.9 26.255C35.126 26.441 33.412 26.698 31.8 27.02C30.3348 27.3151 28.9122 27.7918 27.565 28.439C27.3372 28.5605 27.1652 28.7654 27.085 29.0108C27.0048 29.2562 27.0226 29.5232 27.1348 29.7557C27.2469 29.9883 27.4447 30.1685 27.6867 30.2586C27.9286 30.3486 28.1961 30.3416 28.433 30.239C29.6315 29.6645 30.8969 29.2416 32.2 28.98C33.744 28.672 35.4 28.424 37.108 28.245C37.3719 28.2174 37.614 28.0861 37.7811 27.88C37.9482 27.6739 38.0266 27.4099 37.999 27.146C37.9714 26.8821 37.8401 26.64 37.634 26.4729C37.4279 26.3058 37.1639 26.2274 36.9 26.255V26.255Z" fill="black"/>
<path d="M10.9 23.245C12.613 23.424 14.264 23.672 15.8 23.98C17.1025 24.2421 18.3673 24.6657 19.565 25.241C19.6839 25.3044 19.8144 25.3431 19.9486 25.3548C20.0828 25.3665 20.218 25.351 20.3461 25.3092C20.4742 25.2673 20.5925 25.2 20.6939 25.1113C20.7953 25.0226 20.8777 24.9143 20.9363 24.793C20.9948 24.6716 21.0282 24.5397 21.0344 24.4051C21.0407 24.2705 21.0197 24.136 20.9727 24.0097C20.9257 23.8835 20.8537 23.768 20.7609 23.6703C20.6682 23.5725 20.5566 23.4945 20.433 23.441C19.0866 22.793 17.6646 22.3157 16.2 22.02C14.6 21.698 12.882 21.441 11.108 21.255C10.9773 21.2413 10.8453 21.2535 10.7193 21.2909C10.5934 21.3283 10.476 21.3901 10.374 21.4729C10.2719 21.5556 10.1872 21.6576 10.1245 21.7731C10.0619 21.8886 10.0227 22.0153 10.009 22.146C9.99534 22.2767 10.0076 22.4087 10.0449 22.5347C10.0823 22.6606 10.1442 22.778 10.2269 22.88C10.3096 22.9821 10.4117 23.0668 10.5271 23.1295C10.6426 23.1921 10.7693 23.2313 10.9 23.245V23.245Z" fill="black"/>
<path d="M28 25.34C28.1503 25.3397 28.2987 25.3055 28.434 25.24C29.6321 24.6652 30.8972 24.242 32.2 23.98C33.744 23.672 35.4 23.424 37.108 23.245C37.2387 23.2313 37.3654 23.1921 37.4808 23.1295C37.5963 23.0668 37.6984 22.9821 37.7811 22.88C37.8638 22.778 37.9257 22.6606 37.9631 22.5347C38.0004 22.4087 38.0127 22.2767 37.999 22.146C37.9853 22.0153 37.9461 21.8886 37.8835 21.7731C37.8208 21.6576 37.7361 21.5556 37.634 21.4729C37.532 21.3901 37.4146 21.3283 37.2887 21.2909C37.1627 21.2535 37.0307 21.2413 36.9 21.255C35.126 21.441 33.412 21.698 31.8 22.02C30.3348 22.3151 28.9122 22.7918 27.565 23.439C27.3608 23.5373 27.196 23.7021 27.0977 23.9063C26.9994 24.1106 26.9734 24.3421 27.024 24.5631C27.0746 24.784 27.1987 24.9812 27.376 25.1224C27.5533 25.2635 27.7733 25.3403 28 25.34Z" fill="black"/>
<path d="M10.9 18.245C12.613 18.424 14.264 18.672 15.8 18.98C17.1025 19.2421 18.3673 19.6657 19.565 20.241C19.6839 20.3044 19.8144 20.3431 19.9486 20.3548C20.0828 20.3665 20.218 20.351 20.3461 20.3092C20.4742 20.2673 20.5925 20.2 20.6939 20.1113C20.7953 20.0226 20.8777 19.9143 20.9363 19.793C20.9948 19.6716 21.0282 19.5397 21.0344 19.4051C21.0407 19.2705 21.0197 19.136 20.9727 19.0097C20.9257 18.8835 20.8537 18.768 20.7609 18.6703C20.6682 18.5725 20.5566 18.4945 20.433 18.441C19.0866 17.793 17.6646 17.3157 16.2 17.02C14.6 16.698 12.882 16.441 11.108 16.255C10.9773 16.2413 10.8453 16.2535 10.7193 16.2909C10.5934 16.3283 10.476 16.3901 10.374 16.4729C10.2719 16.5556 10.1872 16.6576 10.1245 16.7731C10.0619 16.8886 10.0227 17.0153 10.009 17.146C9.99534 17.2767 10.0076 17.4087 10.0449 17.5347C10.0823 17.6606 10.1442 17.778 10.2269 17.88C10.3096 17.9821 10.4117 18.0668 10.5271 18.1295C10.6426 18.1921 10.7693 18.2313 10.9 18.245V18.245Z" fill="black"/>
<path d="M28 20.34C28.1503 20.3397 28.2987 20.3055 28.434 20.24C29.6321 19.6652 30.8972 19.242 32.2 18.98C33.744 18.672 35.4 18.424 37.108 18.245C37.3719 18.2174 37.614 18.0861 37.7811 17.88C37.9482 17.6739 38.0266 17.4099 37.999 17.146C37.9714 16.8821 37.8401 16.64 37.634 16.4729C37.4279 16.3058 37.1639 16.2274 36.9 16.255C35.126 16.441 33.412 16.698 31.8 17.02C30.3348 17.3151 28.9122 17.7918 27.565 18.439C27.3608 18.5373 27.196 18.7021 27.0977 18.9063C26.9994 19.1106 26.9734 19.3421 27.024 19.5631C27.0746 19.784 27.1987 19.9812 27.376 20.1224C27.5533 20.2635 27.7733 20.3403 28 20.34Z" fill="black"/>
<path d="M10.9 13.245C12.613 13.424 14.264 13.672 15.8 13.98C17.1026 14.2421 18.3673 14.6657 19.565 15.241C19.6839 15.3044 19.8144 15.3431 19.9486 15.3548C20.0828 15.3665 20.218 15.351 20.3461 15.3092C20.4742 15.2673 20.5925 15.2 20.6939 15.1113C20.7953 15.0226 20.8777 14.9143 20.9363 14.793C20.9948 14.6716 21.0282 14.5397 21.0344 14.4051C21.0407 14.2705 21.0197 14.136 20.9727 14.0097C20.9257 13.8835 20.8537 13.768 20.7609 13.6703C20.6682 13.5725 20.5566 13.4946 20.433 13.441C19.0866 12.793 17.6646 12.3157 16.2 12.02C14.6 11.698 12.882 11.441 11.108 11.255C10.8441 11.2274 10.5801 11.3058 10.374 11.4729C10.1679 11.64 10.0366 11.8821 10.009 12.146C9.98142 12.4099 10.0598 12.6739 10.2269 12.88C10.394 13.0861 10.6361 13.2174 10.9 13.245Z" fill="black"/>
<path d="M28 15.34C28.1503 15.3397 28.2987 15.3055 28.434 15.24C29.6321 14.6652 30.8972 14.242 32.2 13.98C33.744 13.672 35.4 13.424 37.108 13.245C37.3719 13.2174 37.614 13.0861 37.7811 12.88C37.9482 12.6739 38.0266 12.4099 37.999 12.146C37.9714 11.8821 37.8401 11.64 37.634 11.4729C37.4279 11.3058 37.1639 11.2274 36.9 11.255C35.126 11.441 33.412 11.698 31.8 12.02C30.3348 12.3151 28.9122 12.7918 27.565 13.439C27.3608 13.5373 27.196 13.7021 27.0977 13.9063C26.9994 14.1106 26.9734 14.3421 27.024 14.5631C27.0746 14.784 27.1987 14.9812 27.376 15.1224C27.5533 15.2635 27.7733 15.3403 28 15.34V15.34Z" fill="black"/>
</svg>
