<?xml version="1.0" standalone="no"?>
<!DOCTYPE svg PUBLIC "-//W3C//DTD SVG 20010904//EN"
 "http://www.w3.org/TR/2001/REC-SVG-20010904/DTD/svg10.dtd">
<svg version="1.0" xmlns="http://www.w3.org/2000/svg"
 width="1280.000000pt" height="1280.000000pt" viewBox="0 0 1280.000000 1280.000000"
 preserveAspectRatio="xMidYMid meet">
<metadata>
Created by potrace 1.15, written by Peter Selinger 2001-2017
</metadata>
<g transform="translate(0.000000,1280.000000) scale(0.100000,-0.100000)"
fill="#000000" stroke="none">
<path d="M3835 9974 c-1430 -784 -2654 -1452 -2720 -1484 -137 -66 -194 -104
-283 -193 -241 -236 -365 -595 -332 -959 27 -299 119 -506 313 -701 l108 -109
-65 -60 c-122 -111 -230 -277 -290 -446 -90 -252 -94 -566 -9 -827 56 -174
179 -361 308 -467 l63 -52 -41 -36 c-191 -160 -321 -396 -373 -675 -20 -108
-22 -317 -4 -430 70 -445 357 -768 777 -875 43 -11 305 -69 583 -129 454 -99
2575 -565 4450 -977 567 -125 716 -155 760 -151 52 4 212 93 2605 1440 2002
1127 2556 1443 2579 1471 43 53 49 138 13 198 -48 83 -151 112 -240 67 -23
-12 -1153 -647 -2512 -1412 -1358 -765 -2477 -1392 -2486 -1394 -9 -3 -582
120 -1275 272 -692 152 -1596 351 -2009 441 -412 91 -1067 235 -1455 320 -388
85 -767 168 -843 184 -194 41 -285 85 -392 194 -125 125 -184 257 -205 458
-19 176 9 337 85 493 89 184 231 306 393 340 l66 14 705 -155 c388 -85 1165
-256 1726 -379 2244 -493 2858 -628 3030 -666 112 -25 195 -39 220 -36 30 3
670 359 2584 1436 1399 788 2554 1439 2566 1447 12 7 32 32 44 55 29 51 26
143 -6 187 -52 71 -140 97 -215 65 -24 -11 -1161 -649 -2528 -1419 -1673 -941
-2493 -1398 -2510 -1397 -14 1 -524 112 -1135 246 -610 135 -1866 410 -2790
612 -924 202 -1716 378 -1760 391 -235 69 -398 252 -460 516 -23 96 -23 296
-1 397 46 209 160 384 313 481 67 43 173 74 231 67 40 -4 488 -102 2440 -532
161 -36 309 -65 328 -65 43 0 105 31 132 65 65 83 45 210 -41 264 -21 13 -330
85 -922 215 -490 108 -1065 234 -1280 281 -214 48 -473 104 -573 125 -244 52
-323 89 -437 204 -125 125 -183 255 -205 456 -12 111 -3 234 27 345 23 89 95
232 150 297 82 99 219 188 289 188 16 0 208 -38 425 -85 4712 -1012 5297
-1136 5334 -1132 30 3 657 352 2583 1435 1398 788 2552 1438 2565 1447 36 23
67 87 67 138 0 76 -31 131 -92 163 -14 7 -394 94 -845 193 -450 99 -1340 295
-1978 435 -638 140 -1540 338 -2006 440 -476 105 -867 186 -895 186 -46 0
-192 -79 -2649 -1426z"/>
<path d="M12045 8293 c-16 -8 -1150 -646 -2519 -1416 l-2489 -1400 -96 20
c-53 11 -327 71 -610 133 -466 102 -517 112 -552 101 -159 -48 -184 -255 -39
-329 52 -26 1260 -293 1328 -294 28 0 62 10 100 30 31 17 1184 665 2562 1440
1976 1113 2511 1418 2534 1446 42 51 48 136 15 196 -45 80 -156 114 -234 73z"/>
<path d="M4610 5929 c0 -749 3 -939 13 -933 6 5 102 64 211 132 l199 124 46
-52 c178 -199 407 -449 414 -449 4 -1 7 444 7 987 l0 989 -432 72 c-238 39
-439 71 -445 71 -10 0 -13 -195 -13 -941z"/>
</g>
</svg>
