<?xml version="1.0" encoding="iso-8859-1"?>
<!-- Uploaded to: SVG Repo, www.svgrepo.com, Generator: SVG Repo Mixer Tools -->
<svg height="800px" width="800px" version="1.1" id="Layer_1" xmlns="http://www.w3.org/2000/svg" xmlns:xlink="http://www.w3.org/1999/xlink" 
	 viewBox="0 0 512 512" xml:space="preserve">
<polygon style="fill:#F95428;" points="186.268,406.163 186.268,466.42 143.084,443.174 99.9,466.42 99.9,406.163 99.9,373.801 
	99.9,332.98 186.268,332.98 186.268,373.878 "/>
<g>
	<path style="fill:#F7B239;" d="M455.241,332.98c1.627,13.973,5.295,27.752,10.99,40.899H186.268V332.98H99.9v40.821
		c-9.556-0.478-18.699-3.306-26.68-8.071c-8.807-5.23-16.22-12.798-21.269-22.135c-4.662-8.601-6.986-18.092-6.986-27.571
		c0-9.492,2.325-18.984,6.986-27.571c0.142-0.258,0.284-0.517,0.439-0.775c10.215-18.222,29.495-29.521,50.429-29.521H466.23
		c-4.145,9.556-7.206,19.461-9.195,29.521c-0.749,3.771-1.356,7.58-1.795,11.39c-0.672,5.63-1.007,11.3-1.007,16.956
		C454.233,321.693,454.569,327.349,455.241,332.98z"/>
	<path style="fill:#F7B239;" d="M56.754,152.688c0.672-5.63,1.007-11.287,1.007-16.956c0-5.656-0.336-11.326-1.007-16.956
		c-1.614-13.973-5.282-27.765-10.99-40.911h174.597h188.828c21.218,0,40.744,11.623,50.868,30.283
		c4.662,8.601,6.986,18.092,6.986,27.584c0,9.479-2.324,18.971-6.986,27.571c-5.062,9.337-12.475,16.904-21.269,22.135
		c-8.807,5.243-18.984,8.149-29.599,8.149H220.361H45.764C51.472,180.44,55.14,166.661,56.754,152.688z"/>
</g>
<path style="fill:#E09B2D;" d="M460.057,108.147c-10.125-18.661-29.65-30.283-50.868-30.283h-48.425
	c21.218,0,40.744,11.623,50.868,30.283c4.662,8.601,6.986,18.092,6.986,27.584c0,9.479-2.324,18.971-6.986,27.571
	c-5.062,9.337-12.475,16.904-21.269,22.135c-8.807,5.243-18.984,8.149-29.599,8.149h48.425c10.615,0,20.792-2.906,29.599-8.149
	c8.794-5.23,16.207-12.798,21.269-22.135c4.662-8.601,6.986-18.092,6.986-27.571C467.044,126.24,464.719,116.748,460.057,108.147z"
	/>
<g>
	<path style="fill:#2BA5F7;" d="M497.585,378.605c2.919,2.919,4.727,6.961,4.727,11.416c0,8.924-7.232,16.142-16.142,16.142H186.268
		v-32.285h105.365H466.23h19.939C490.625,373.878,494.654,375.686,497.585,378.605z"/>
	<path style="fill:#2BA5F7;" d="M497.585,230.598c2.919,2.931,4.727,6.961,4.727,11.416c0,8.911-7.232,16.142-16.142,16.142H466.23
		H291.634H102.818c-21.231,0-40.756,11.623-50.868,30.296c-4.662,8.588-6.986,18.08-6.986,27.571c0,9.479,2.325,18.971,6.986,27.571
		c5.049,9.337,12.462,16.904,21.269,22.135c7.981,4.765,17.124,7.593,26.68,8.071v32.362h-0.065
		c-24.885,0-47.433-10.086-63.743-26.396c-16.31-16.323-26.409-38.845-26.409-63.743c0-49.796,40.369-90.152,90.152-90.152h312.337
		h73.997C490.625,225.871,494.654,227.679,497.585,230.598z"/>
</g>
<path style="fill:#F95428;" d="M412.172,45.579c49.783,0,90.139,40.356,90.139,90.152c0,24.898-10.086,47.42-26.396,63.743
	c-16.31,16.31-38.858,26.396-63.743,26.396H99.835h-74.01c-8.911,0-16.142-7.219-16.142-16.142c0-4.455,1.808-8.497,4.727-11.416
	s6.961-4.727,11.416-4.727h19.939h174.597h188.828c10.615,0,20.791-2.906,29.599-8.149c8.794-5.23,16.207-12.798,21.269-22.135
	c4.662-8.601,6.986-18.092,6.986-27.571c0-9.492-2.324-18.984-6.986-27.584c-10.125-18.661-29.65-30.283-50.868-30.283H220.361
	H45.765H25.825c-8.911,0-16.142-7.232-16.142-16.142c0-4.455,1.808-8.484,4.727-11.416c2.919-2.919,6.961-4.727,11.416-4.727
	C25.825,45.579,412.172,45.579,412.172,45.579z"/>
<g>
	<path style="fill:#E09B2D;" d="M466.23,258.156c-4.145,9.556-7.206,19.461-9.195,29.521H52.389
		c10.215-18.222,29.496-29.521,50.429-29.521H466.23z"/>
	<path style="fill:#E09B2D;" d="M45.777,77.864c4.145,9.556,7.206,19.461,9.195,29.521h404.646
		c-10.215-18.222-29.495-29.521-50.429-29.521H45.777z"/>
	<path style="fill:#E09B2D;" d="M99.9,332.98v40.821c-9.556-0.478-18.699-3.306-26.68-8.071c-8.807-5.23-16.22-12.798-21.269-22.135
		c-1.86-3.409-3.332-6.974-4.442-10.615L99.9,332.98L99.9,332.98z"/>
</g>
<g>
	<path style="fill:#FFFFFF;" d="M157.368,425.207c-5.349,0-9.685-4.337-9.685-9.685v-24.537c0-5.349,4.337-9.685,9.685-9.685
		s9.685,4.337,9.685,9.685v24.537C167.054,420.871,162.717,425.207,157.368,425.207z"/>
	<circle style="fill:#FFFFFF;" cx="157.37" cy="362.883" r="9.685"/>
</g>
<g>
	<path style="fill:#333333;" d="M472.77,267.844h13.402c14.241,0,25.828-11.586,25.828-25.828c0-6.879-2.681-13.361-7.578-18.281
		c-4.889-4.867-11.371-7.547-18.25-7.547h-14.996C495.909,198,512,168.713,512,135.726c0-55.048-44.786-99.834-99.834-99.834H25.832
		c-14.242,0-25.828,11.586-25.828,25.828S11.59,87.548,25.832,87.548H39.24c11.716,30.943,11.716,65.412,0,96.355H25.832
		c-14.242,0-25.828,11.586-25.828,25.828s11.586,25.828,25.828,25.828h14.996C16.092,253.75,0,283.039,0,316.026
		c0,26.647,10.385,51.717,29.245,70.592c16.565,16.565,37.932,26.583,60.966,28.771v51.033c0,3.409,1.792,6.567,4.717,8.314
		c2.928,1.749,6.556,1.83,9.558,0.214l38.596-20.773l38.596,20.773c1.435,0.772,3.013,1.157,4.591,1.157
		c1.721,0,3.44-0.458,4.968-1.371c2.926-1.749,4.717-4.906,4.717-8.314v-50.571h290.216c14.241,0,25.828-11.586,25.828-25.828
		c0-6.901-2.686-13.388-7.578-18.28c-4.889-4.867-11.371-7.548-18.25-7.548h-13.402c-3.952-10.419-6.618-21.267-7.91-32.36
		c-0.624-5.226-0.94-10.546-0.94-15.809s0.316-10.582,0.943-15.836C466.154,289.111,468.82,278.26,472.77,267.844z M65.084,162.371
		h99.376c5.349,0,9.685-4.337,9.685-9.685S169.808,143,164.459,143H67.211c0.226-4.845,0.226-9.697,0-14.541h47.955
		c5.349,0,9.685-4.337,9.685-9.685s-4.337-9.685-9.685-9.685H65.084c-1.259-7.273-3.009-14.475-5.308-21.538h349.408
		c17.693,0,33.924,9.664,42.355,25.218c7.794,14.376,7.794,31.541,0,45.918c-8.432,15.555-24.662,25.218-42.355,25.218H59.776
		C62.074,176.843,63.825,169.642,65.084,162.371z M25.832,216.189c-3.56,0-6.457-2.897-6.457-6.457s2.897-6.457,6.457-6.457h383.352
		c24.808,0,47.563-13.548,59.385-35.358c10.927-20.156,10.927-44.224,0-64.38c-11.823-21.81-34.577-35.358-59.385-35.358H45.768
		H25.832c-3.56,0-6.457-2.897-6.457-6.457s2.897-6.457,6.457-6.457h386.335c44.367,0,80.463,36.096,80.463,80.463
		c0,44.35-36.069,80.435-80.413,80.462H25.832z M42.945,372.924c-15.202-15.214-23.574-35.422-23.574-56.898
		c0-44.353,36.07-80.439,80.418-80.466h312.378c0.017,0,0.034-0.001,0.05-0.001h73.956c1.721,0,3.35,0.677,4.552,1.874
		c1.228,1.233,1.905,2.862,1.905,4.583c0,3.56-2.897,6.457-6.457,6.457H102.821c-24.815,0-47.571,13.553-59.38,35.36
		c-5.339,9.833-8.16,20.965-8.16,32.193c0,11.213,2.82,22.342,8.153,32.178c5.785,10.699,14.376,19.64,24.823,25.843
		c6.758,4.034,14.222,6.83,21.955,8.302v13.54C72.362,393.776,55.843,385.821,42.945,372.924z M176.586,450.21l-28.911-15.561
		c-1.433-0.771-3.012-1.157-4.591-1.157s-3.157,0.386-4.591,1.157l-28.91,15.561V342.666h67.003V450.21z M490.74,385.455
		c1.218,1.218,1.889,2.841,1.889,4.568c0,3.56-2.897,6.457-6.457,6.457H195.957v-12.914h290.216
		C487.894,383.566,489.521,384.243,490.74,385.455z M195.957,364.195v-21.529h31.639c5.349,0,9.685-4.336,9.685-9.685
		s-4.337-9.685-9.685-9.685h-41.325H99.897c-5.349,0-9.685,4.337-9.685,9.685v29.508c-4.218-1.144-8.283-2.839-12.045-5.086
		c-7.457-4.427-13.575-10.795-17.7-18.423c-3.804-7.019-5.815-14.957-5.815-22.955c0-8.009,2.011-15.946,5.818-22.96
		c8.424-15.557,24.653-25.222,42.35-25.222h349.396c-2.299,7.043-4.079,14.242-5.345,21.539h-50.034
		c-5.349,0-9.685,4.337-9.685,9.685c0,5.349,4.337,9.685,9.685,9.685h47.902c-0.116,2.427-0.19,4.854-0.19,7.272
		s0.074,4.844,0.19,7.269h-97.194c-5.349,0-9.685,4.337-9.685,9.685s4.337,9.685,9.685,9.685h99.326
		c1.267,7.296,3.046,14.489,5.344,21.529L195.957,364.195L195.957,364.195z"/>
	<circle style="fill:#333333;" cx="197.984" cy="152.682" r="9.685"/>
</g>
</svg>