<svg xmlns="http://www.w3.org/2000/svg" version="1.1" xmlns:xlink="http://www.w3.org/1999/xlink"
  xmlns:svgjs="http://svgjs.dev/svgjs" viewBox="0 0 800 800" opacity="0.33" width="800" height="800">
  <g stroke-width="1.75" stroke="hsl(261, 60%, 38%)" fill="none">
    <rect width="200" height="133.33333333333334" x="0" y="0" opacity="0.15"></rect>
    <circle r="6.710526315789474" cx="0" cy="0" fill="hsl(261, 60%, 38%)" stroke="none"></circle>
    <rect width="200" height="133.33333333333334" x="200" y="0" opacity="0.15"></rect>
    <circle r="6.710526315789474" cx="200" cy="0" fill="hsl(261, 60%, 38%)" stroke="none"></circle>
    <rect width="200" height="133.33333333333334" x="400" y="0" opacity="0.15"></rect>
    <circle r="6.710526315789474" cx="400" cy="0" fill="hsl(261, 60%, 38%)" stroke="none"></circle>
    <rect width="200" height="133.33333333333334" x="600" y="0" opacity="0.15"></rect>
    <circle r="6.710526315789474" cx="600" cy="0" fill="hsl(261, 60%, 38%)" stroke="none"></circle>
    <rect width="200" height="133.33333333333334" x="800" y="0" opacity="0.15"></rect>
    <circle r="6.710526315789474" cx="800" cy="0" fill="hsl(261, 60%, 38%)" stroke="none"></circle>
    <rect width="200" height="133.33333333333334" x="0" y="133.33333333333334" opacity="0.15"></rect>
    <circle r="6.710526315789474" cx="0" cy="133.33333333333334" fill="hsl(261, 60%, 38%)"
      stroke="none"></circle>
    <rect width="200" height="133.33333333333334" x="200" y="133.33333333333334" opacity="0.15"></rect>
    <circle r="6.710526315789474" cx="200" cy="133.33333333333334" fill="hsl(261, 60%, 38%)"
      stroke="none"></circle>
    <rect width="200" height="133.33333333333334" x="400" y="133.33333333333334" opacity="0.15"></rect>
    <circle r="6.710526315789474" cx="400" cy="133.33333333333334" fill="hsl(261, 60%, 38%)"
      stroke="none"></circle>
    <rect width="200" height="133.33333333333334" x="600" y="133.33333333333334" opacity="0.15"></rect>
    <circle r="6.710526315789474" cx="600" cy="133.33333333333334" fill="hsl(261, 60%, 38%)"
      stroke="none"></circle>
    <rect width="200" height="133.33333333333334" x="800" y="133.33333333333334" opacity="0.15"></rect>
    <circle r="6.710526315789474" cx="800" cy="133.33333333333334" fill="hsl(261, 60%, 38%)"
      stroke="none"></circle>
    <rect width="200" height="133.33333333333334" x="0" y="266.6666666666667" opacity="0.15"></rect>
    <circle r="6.710526315789474" cx="0" cy="266.6666666666667" fill="hsl(261, 60%, 38%)"
      stroke="none"></circle>
    <rect width="200" height="133.33333333333334" x="200" y="266.6666666666667" opacity="0.15"></rect>
    <circle r="6.710526315789474" cx="200" cy="266.6666666666667" fill="hsl(261, 60%, 38%)"
      stroke="none"></circle>
    <rect width="200" height="133.33333333333334" x="400" y="266.6666666666667" opacity="0.15"></rect>
    <circle r="6.710526315789474" cx="400" cy="266.6666666666667" fill="hsl(261, 60%, 38%)"
      stroke="none"></circle>
    <rect width="200" height="133.33333333333334" x="600" y="266.6666666666667" opacity="0.15"></rect>
    <circle r="6.710526315789474" cx="600" cy="266.6666666666667" fill="hsl(261, 60%, 38%)"
      stroke="none"></circle>
    <rect width="200" height="133.33333333333334" x="800" y="266.6666666666667" opacity="0.15"></rect>
    <circle r="6.710526315789474" cx="800" cy="266.6666666666667" fill="hsl(261, 60%, 38%)"
      stroke="none"></circle>
    <rect width="200" height="133.33333333333334" x="0" y="400" opacity="0.15"></rect>
    <circle r="6.710526315789474" cx="0" cy="400" fill="hsl(261, 60%, 38%)" stroke="none"></circle>
    <rect width="200" height="133.33333333333334" x="200" y="400" opacity="0.15"></rect>
    <circle r="6.710526315789474" cx="200" cy="400" fill="hsl(261, 60%, 38%)" stroke="none"></circle>
    <rect width="200" height="133.33333333333334" x="400" y="400" opacity="0.15"></rect>
    <circle r="6.710526315789474" cx="400" cy="400" fill="hsl(261, 60%, 38%)" stroke="none"></circle>
    <rect width="200" height="133.33333333333334" x="600" y="400" opacity="0.15"></rect>
    <circle r="6.710526315789474" cx="600" cy="400" fill="hsl(261, 60%, 38%)" stroke="none"></circle>
    <rect width="200" height="133.33333333333334" x="800" y="400" opacity="0.15"></rect>
    <circle r="6.710526315789474" cx="800" cy="400" fill="hsl(261, 60%, 38%)" stroke="none"></circle>
    <rect width="200" height="133.33333333333334" x="0" y="533.3333333333334" opacity="0.15"></rect>
    <circle r="6.710526315789474" cx="0" cy="533.3333333333334" fill="hsl(261, 60%, 38%)"
      stroke="none"></circle>
    <rect width="200" height="133.33333333333334" x="200" y="533.3333333333334" opacity="0.15"></rect>
    <circle r="6.710526315789474" cx="200" cy="533.3333333333334" fill="hsl(261, 60%, 38%)"
      stroke="none"></circle>
    <rect width="200" height="133.33333333333334" x="400" y="533.3333333333334" opacity="0.15"></rect>
    <circle r="6.710526315789474" cx="400" cy="533.3333333333334" fill="hsl(261, 60%, 38%)"
      stroke="none"></circle>
    <rect width="200" height="133.33333333333334" x="600" y="533.3333333333334" opacity="0.15"></rect>
    <circle r="6.710526315789474" cx="600" cy="533.3333333333334" fill="hsl(261, 60%, 38%)"
      stroke="none"></circle>
    <rect width="200" height="133.33333333333334" x="800" y="533.3333333333334" opacity="0.15"></rect>
    <circle r="6.710526315789474" cx="800" cy="533.3333333333334" fill="hsl(261, 60%, 38%)"
      stroke="none"></circle>
    <rect width="200" height="133.33333333333334" x="0" y="666.6666666666667" opacity="0.15"></rect>
    <circle r="6.710526315789474" cx="0" cy="666.6666666666667" fill="hsl(261, 60%, 38%)"
      stroke="none"></circle>
    <rect width="200" height="133.33333333333334" x="200" y="666.6666666666667" opacity="0.15"></rect>
    <circle r="6.710526315789474" cx="200" cy="666.6666666666667" fill="hsl(261, 60%, 38%)"
      stroke="none"></circle>
    <rect width="200" height="133.33333333333334" x="400" y="666.6666666666667" opacity="0.15"></rect>
    <circle r="6.710526315789474" cx="400" cy="666.6666666666667" fill="hsl(261, 60%, 38%)"
      stroke="none"></circle>
    <rect width="200" height="133.33333333333334" x="600" y="666.6666666666667" opacity="0.15"></rect>
    <circle r="6.710526315789474" cx="600" cy="666.6666666666667" fill="hsl(261, 60%, 38%)"
      stroke="none"></circle>
    <rect width="200" height="133.33333333333334" x="800" y="666.6666666666667" opacity="0.15"></rect>
    <circle r="6.710526315789474" cx="800" cy="666.6666666666667" fill="hsl(261, 60%, 38%)"
      stroke="none"></circle>
    <rect width="200" height="133.33333333333334" x="0" y="800.0000000000001" opacity="0.15"></rect>
    <circle r="6.710526315789474" cx="0" cy="800.0000000000001" fill="hsl(261, 60%, 38%)"
      stroke="none"></circle>
    <rect width="200" height="133.33333333333334" x="200" y="800.0000000000001" opacity="0.15"></rect>
    <circle r="6.710526315789474" cx="200" cy="800.0000000000001" fill="hsl(261, 60%, 38%)"
      stroke="none"></circle>
    <rect width="200" height="133.33333333333334" x="400" y="800.0000000000001" opacity="0.15"></rect>
    <circle r="6.710526315789474" cx="400" cy="800.0000000000001" fill="hsl(261, 60%, 38%)"
      stroke="none"></circle>
    <rect width="200" height="133.33333333333334" x="600" y="800.0000000000001" opacity="0.15"></rect>
    <circle r="6.710526315789474" cx="600" cy="800.0000000000001" fill="hsl(261, 60%, 38%)"
      stroke="none"></circle>
    <rect width="200" height="133.33333333333334" x="800" y="800.0000000000001" opacity="0.15"></rect>
    <circle r="6.710526315789474" cx="800" cy="800.0000000000001" fill="hsl(261, 60%, 38%)"
      stroke="none"></circle>
  </g>
</svg>