<svg xmlns="http://www.w3.org/2000/svg" width="67" height="44" fill="none" viewBox="0 0 67 44">
  <path stroke="#FA0" stroke-width="2" d="M43.407 22c0 11.59-9.484 21-21.203 21C10.483 43 1 33.59 1 22S10.484 1 22.203 1c11.72 0 21.204 9.41 21.204 21Z"/>
  <path stroke="#FA0" stroke-width="2" d="M66 22c0 11.59-9.484 21-21.203 21-11.72 0-21.204-9.41-21.204-21S33.077 1 44.797 1C56.516 1 66 10.41 66 22Z"/>
  <path stroke="#FA0" stroke-width="2" d="M0-1h21.935" transform="scale(1.0046 .99539) rotate(45 1.014 36.869)"/>
  <path stroke="#FA0" stroke-width="2" d="M0-1h21.935" transform="scale(1.0046 .99539) rotate(45 -6.314 37.71)"/>
  <path stroke="#FA0" stroke-width="2" d="M0-1h20.38" transform="scale(1.0046 .99539) rotate(45 -14.579 38.94)"/>
  <path stroke="#FA0" stroke-width="2" d="M0-1h16.503" transform="scale(1.0046 .99539) rotate(45 -22.068 42.043)"/>
  <path stroke="#FA0" stroke-width="2" d="M0-1h16.503" transform="scale(1.0046 .99539) rotate(45 5.761 40.386)"/>
</svg>
