<svg xmlns="http://www.w3.org/2000/svg" xml:space="preserve" viewBox="0 0 511.999 511.999"><path d="M311.108 24.194V9.146H296.06c-18.818 0-34.072 15.255-34.072 34.072v15.048h15.048c18.818.001 34.072-15.254 34.072-34.072z" style="fill:#f4bd64"/><path d="M286.32 231.378c5.536 1.926 11.596 1.651 16.889-.868 28.297-13.458 47.859-42.305 47.859-75.726 0-46.289-37.525-89.81-83.814-59.829-46.289-29.981-83.814 13.54-83.814 59.829 0 33.42 19.562 62.268 47.859 75.726 5.293 2.517 11.353 2.793 16.889.868" style="fill:#4eb79b"/><path d="M252.893 231.382h-4.694c-5.538 1.925-11.599 1.652-16.9-.868-28.297-13.465-47.859-42.309-47.859-75.728 0-40.17 28.273-78.259 65.995-68.015-10.601 7.285-17.732 37.032-17.732 68.015 0 33.419 8.295 62.263 20.299 75.728.297.321.582.618.891.868z" style="fill:#40a084"/><path d="M453.365 503.321H101.682c-21.102 0-40.223-8.563-54.058-22.398-13.82-13.835-22.383-32.941-22.383-54.058 0-42.219 34.223-76.457 76.441-76.457h351.683" style="fill:#d37250"/><path d="M249.799 381.552h214.242v96.26H249.799z" style="fill:#e6e6e6"/><path d="M458.695 232.639H250.134v.067a26.925 26.925 0 0 0-1.783-.067H39.791v35.654h19.606v46.468H39.791v35.654h208.561c.6 0 1.193-.027 1.783-.067v.067h208.561c14.57 0 26.395-11.825 26.395-26.395v-64.996c0-14.572-11.826-26.385-26.396-26.385z" style="fill:#f4bd64"/><path d="M487.218 394.097H291.81c-18.059 0-32.753 14.708-32.753 32.767 0 18.073 14.694 32.767 32.753 32.767h195.409v43.689H291.81c-21.102 0-40.223-8.563-54.058-22.398-13.82-13.835-22.383-32.941-22.383-54.058 0-42.219 34.223-76.457 76.441-76.457h195.409v43.69h-.001z" style="fill:#e88158"/><path d="M59.402 254.982h190.402v73.09H59.402z" style="fill:#ccc"/><path d="M39.791 314.761h199.303v-46.468H39.791v-35.654h208.561c14.57 0 26.396 11.813 26.396 26.384v64.996c0 14.57-11.825 26.396-26.395 26.396H39.791v-35.654z" style="fill:#dda758"/><path d="M486.987 402.778a8.912 8.912 0 0 0 8.913-8.913v-43.69c0-4.233-2.953-7.77-6.911-8.679a35.084 35.084 0 0 0 4.782-17.71V258.79c0-19.463-15.84-35.297-35.309-35.297H417.63a8.913 8.913 0 0 0 0 17.826h40.832c9.64 0 17.482 7.837 17.482 17.47v64.996c0 9.602-7.781 17.413-17.368 17.476h-179.79a35.082 35.082 0 0 0 4.646-17.474v-64.996a35.064 35.064 0 0 0-4.649-17.474H387.92a8.913 8.913 0 0 0 0-17.826h-58.95c19.218-17.36 30.782-42.393 30.782-68.94 0-30.934-15.16-59.961-37.721-72.228-14.907-8.104-31.754-8.444-48.438-1.223-1.023-4.291-2.455-9.226-4.425-14.154h7.638c23.701 0 42.985-19.284 42.985-42.985V8.913A8.912 8.912 0 0 0 310.878 0H295.83c-23.701 0-42.985 19.284-42.985 42.985v1.455c-4.135-2.733-8.982-4.394-14.664-4.394a8.913 8.913 0 0 0 0 17.826c7.334 0 12.81 10.337 16.206 20.95-14.669-4.73-29.269-3.622-42.368 3.5-22.563 12.267-37.721 41.294-37.721 72.228 0 26.548 11.565 51.582 30.784 68.942H39.562a8.913 8.913 0 0 0-8.913 8.913v35.654a8.913 8.913 0 0 0 8.913 8.913h10.696v28.642H39.562a8.913 8.913 0 0 0-8.913 8.913v35.654a8.913 8.913 0 0 0 8.913 8.913h9.768c-20.194 15.627-33.233 40.079-33.233 67.534 0 22.79 8.875 44.225 24.994 60.361 16.127 16.127 37.563 25.009 60.36 25.009h385.537a8.912 8.912 0 0 0 8.913-8.913v-43.689a8.912 8.912 0 0 0-8.913-8.913h-14.26v-47.706h14.259zM270.671 42.985c0-13.873 11.286-25.158 25.158-25.158h6.135v6.135c0 13.873-11.286 25.158-25.158 25.158h-6.135v-6.135zm-35.774 179.243c-25.984-12.358-42.774-38.923-42.774-67.676 0-24.211 11.682-47.471 28.41-56.568 12.495-6.792 26.893-5.334 41.645 4.22a8.913 8.913 0 0 0 9.691 0c14.752-9.554 29.152-11.012 41.646-4.22 16.727 9.095 28.41 32.357 28.41 56.568 0 28.753-16.79 55.318-42.775 67.676-3.151 1.499-61.102 1.499-64.253 0zM48.475 341.271v-17.827h82.74a8.913 8.913 0 0 0 0-17.826h-63.13v-28.642h161.867v28.642h-69.025a8.913 8.913 0 0 0 0 17.826h77.939a8.913 8.913 0 0 0 8.913-8.913v-46.468a8.913 8.913 0 0 0-8.913-8.913H48.475v-17.827h199.648c9.639 0 17.482 7.838 17.482 17.47v64.996c0 9.582-7.75 17.38-17.31 17.474H101.45c-.115 0-.228.008-.343.008H48.475zm429.599 152.902H291.579c-18.036 0-34.995-7.027-47.756-19.786a8.913 8.913 0 0 0-12.605 0 8.913 8.913 0 0 0 0 12.605 86.716 86.716 0 0 0 8.179 7.182H101.45c-18.035 0-34.995-7.027-47.752-19.783-12.753-12.766-19.777-29.728-19.777-47.759 0-37.128 30.108-67.347 67.185-67.534h138.349c-20.194 15.627-33.233 40.079-33.233 67.534 0 13.302 2.979 26.053 8.855 37.897 2.188 4.409 7.536 6.213 11.946 4.024 4.409-2.188 6.212-7.536 4.024-11.946-4.643-9.36-6.998-19.445-6.998-29.975 0-37.166 30.169-67.412 67.3-67.537h167.113c.076 0 .152-.005.228-.006h19.382v25.863H291.579c-22.974 0-41.666 18.698-41.666 41.68s18.692 41.68 41.666 41.68h186.495v25.861zM454.9 450.485H291.579c-13.145 0-23.839-10.701-23.839-23.853 0-13.153 10.694-23.853 23.839-23.853H454.9v47.706z"/></svg>