<?xml version="1.0" ?><svg xmlns="http://www.w3.org/2000/svg" width="26.706003mm" height="116.08634mm" viewBox="0 0 26.706003 116.08634">
    <path d="m 68.910113,179.8598 c -2.267505,-2.26758 0.428308,-79.2331 3.370898,-96.237555 l 0.625501,-3.614552 -4.533688,5.135536 c -3.306762,3.745732 -4.989512,4.837879 -6.218079,4.035636 -1.359164,-0.887571 -0.427249,-3.39127 4.826529,-12.96707 5.545349,-10.106951 6.956716,-11.867039 9.515925,-11.867039 2.539471,0 3.696097,1.39954 7.46797,9.036315 5.123974,10.374445 5.483622,12.681241 2.24716,14.413335 -1.764427,0.944378 -2.796196,0.774595 -4.274265,-0.7035 -1.071615,-1.07151 -2.110449,-1.748155 -2.308516,-1.503627 -0.625104,0.771604 -3.359097,47.676221 -4.169357,71.530421 -0.741442,21.83148 -0.891434,22.90837 -3.236701,23.24407 -1.352576,0.19362 -2.843583,-0.0325 -3.313377,-0.50197 z" fill="#28c2c4" transform="translate(-61.594673,-64.344756)"/>
</svg>