<?xml version="1.0" ?><svg xmlns="http://www.w3.org/2000/svg" viewBox="0 0 58.84742 56.438202" height="56.438202mm" width="58.84742mm">
    <path d="m 19088.049,4435.9881 a 92.037404,101.52148 0 0 1 -92.037,101.5214 92.037404,101.52148 0 0 1 -92.037,-101.5214 92.037404,101.52148 0 0 1 92.037,-101.5216 92.037404,101.52148 0 0 1 92.037,101.5216 z" color="#000" overflow="visible" fill="none" paint-order="fill markers stroke" transform="translate(-67.473107,-2.9737221) matrix(0.26458333,0,0,0.26458333,-4926.8045,-1142.205)"/>
    <path d="m 18947.194,4530.3077 c -7.188,-3.6705 -14.025,-8.2849 -19.122,-12.9055 -2.398,-2.1741 -4.59,-3.9528 -4.871,-3.9528 -8.678,-8.5348 -19.922,-22.8455 -24.452,-34.5341 -3.24,-9.0234 -5.441,-18.1386 -7.886,-27.3149 -3.275,-1.7283 -8.966,1.2351 -11.813,-1.3505 -3.873,-3.7527 -4.954,-7.8405 2.256,-10.4729 1.875,-0.6843 4.614,-1.2596 6.087,-1.278 3.243,-0.04 3.581,-0.5311 4.151,-5.9985 7.348,-27.3523 23.379,-59.8801 42.877,-75.0698 30.588,-29.2399 80.842,-35.8704 109.385,-22.7837 14.344,6.0226 27.804,17.9953 35.872,32.3144 20.868,32.5154 23.398,62.3096 12.12,99.6851 -2.126,8.2061 -6.047,15.66 -10.309,22.9442 -16.405,28.0257 -40.566,47.8855 -76.914,51.3872 -20.134,2.3334 -41.717,-2.8 -57.381,-10.6702 z m 95.159,-21.0697 c 2.696,-1.2128 21.933,-21.3068 20.22,-23.6237 -0.254,0 -1.17,1.99 -2.522,1.7042 -11.217,-0.9043 -23.353,-11.5628 -45.315,-11.2297 -7.04,0.2988 -9.319,1.0685 -17.197,5.807 -8.442,5.0781 -10.664,6.8896 -19.661,16.0318 -5.434,9.7389 -17.894,7.7451 -17.465,-0.01 0.174,-6.1494 9.046,-15.3792 14.569,-20.6241 22.611,-22.3063 57.74,-14.2409 72.629,-5.884 11.648,6.5372 15.768,12.8697 16.752,11.6071 12.78,-20.1089 17.879,-54.379 15.48,-76.9344 -1.748,-15.1543 -7.96,-25.3743 -16.224,-37.7187 -24.653,-35.3964 -84.796,-24.8271 -110.387,-4.9223 -21.931,17.0591 -39.347,46.1523 -43.417,72.1803 2.375,1.7483 7.367,0.5752 10.911,0.5367 9.29,1.1516 7.376,10.6767 -0.701,11.7525 -7.257,0.9436 -11.144,0.3974 -11.048,2.9894 0.477,3.4278 2.508,13.4967 3.014,14.8765 7.481,21.6163 15.859,33.5857 31.276,46.2493 2.984,2.4487 10.249,7.1007 11.089,7.1007 31.876,12.6429 60.644,11.2805 87.997,-9.892 z m -80.085,-92.5505 c -7.807,-1.0121 -8.647,-8.9381 -8.586,-12.8789 0.118,-5.5289 0.941,-7.1077 4.311,-8.2661 9.049,-2.6605 12.632,2.886 12.037,8.7706 -1.039,5.733 -1.812,13.1456 -7.762,12.3744 z m 57.441,-14.9981 c -3.062,-9.1473 8.662,-10.4449 12.186,-7.1659 3.58,3.8015 4.637,9.4583 2.257,13.3725 -4.331,10.4598 -13.762,2.9544 -14.443,-6.2066 z" fill="#28c2c4" transform="translate(-67.473107,-2.9737221) matrix(0.26458333,0,0,0.26458333,-4926.8045,-1142.205)"/>
</svg>