<svg xmlns="http://www.w3.org/2000/svg" viewBox="0 0 64 64"><g data-name="Stroke copy 3"><path d="M17 31.4a23 23 0 0 1-2-9.4 23.2 23.2 0 0 1 1-6.4A23 23 0 0 0 9 32v1.3ZM38 45a23 23 0 0 1-19.6-11l-9 2.1a23 23 0 0 0 44.7 2.3A23 23 0 0 1 38 45Z" style="fill:#cff09e"/><path d="M21.3 30.4A14.5 14.5 0 0 1 26 30l-6-4 3-9-4.7-3.5A23 23 0 0 0 9 32v1.3ZM22.2 33.2l-.9.1-12 2.9A23 23 0 0 0 19 50.9L27 41l-7-6ZM27 19l6 1 3-7-.8-3.8a23 23 0 0 0-8 .3L29 15ZM39 30a14.2 14.2 0 0 1 3.7.4l12.2 2.9V32a23 23 0 0 0-11.2-19.8L40 19l-5 6 5 2ZM42.7 33.4A14.2 14.2 0 0 0 38 33l9.9 2-4 8 5.5 3.9a23 23 0 0 0 5.1-10.7ZM30 51l-.8 3.8a24.4 24.4 0 0 0 2.8.2 23 23 0 0 0 9.7-2.2L37 50Z" style="fill:#a8dba8"/><path d="m61 40-29-2-29 2v4l25-1.7a4 4 0 0 0 8 0L61 44Z" style="fill:#79bd9a"/><path d="M32 35v3l26 2v-3l-15.3-3.6A14.3 14.3 0 0 0 32 35ZM21.3 33.4 6 37v3l26-2v-3a14.3 14.3 0 0 0-10.7-1.6Z" style="fill:#cff09e"/><path d="M53.4 14.9a1 1 0 0 1-.8-.4 27 27 0 0 0-29.7-8 1 1 0 0 1-.7-1.8 29.1 29.1 0 0 1 32 8.6 1 1 0 0 1-.8 1.6ZM60 31a1 1 0 0 1-1-1 26.8 26.8 0 0 0-1.6-7.1 1 1 0 0 1 1.9-.7 29 29 0 0 1 1.6 7.7A1 1 0 0 1 60 31ZM4.1 31H4a1 1 0 0 1-1-1 29.1 29.1 0 0 1 10.2-20 1 1 0 0 1 1.3 1.5A27.1 27.1 0 0 0 5.1 30a1 1 0 0 1-1 .9Z" style="fill:#57b7eb"/></g><g data-name="Stroke Close copy 3"><path d="m61 39-2-.1V34a1 1 0 0 0-.8-1l-2.2-.5V32a24 24 0 0 0-11.8-20.6A24 24 0 0 0 18 12.7 24 24 0 0 0 8 32v.5l-2.2.5a1 1 0 0 0-.8 1v4.9L3 39a1 1 0 0 0-1 1v4a1 1 0 0 0 .3.7 1 1 0 0 0 .8.3l8.4-.6a24 24 0 0 0 6.7 7.2h.1A23.8 23.8 0 0 0 42 53.9a1 1 0 0 0 .4-.2 24.1 24.1 0 0 0 8-6.1 24.8 24.8 0 0 0 2.1-3l8.4.6a1 1 0 0 0 .8-.3 1 1 0 0 0 .3-.8v-4a1 1 0 0 0-1-1Zm-4-.3-24-1.6v-4.5a13.1 13.1 0 0 1 6-1.6 13.7 13.7 0 0 1 3.4.3L57 34.9Zm-30.6-9.6-5.2-3.5 2.8-8.3a1 1 0 0 0-.3-1.1L20 13.5a22.2 22.2 0 0 1 6.5-2.8l1.4 4.2-1.8 3.6a1 1 0 0 0 0 1 1 1 0 0 0 .7.5l6 1h.1a1 1 0 0 0 1-.6l3-7a1 1 0 0 0 0-.6l-.5-2.4a22 22 0 0 1 5.9 2.2l-3.2 5.8-5 6a1 1 0 0 0-.2.8 1 1 0 0 0 .6.7l4.2 1.7-.5 1.4a15.1 15.1 0 0 0-6.3 1.9 15.2 15.2 0 0 0-5.6-1.8ZM54 32l-11.1-2.6a15.4 15.4 0 0 0-2.5-.4l.6-1.7a1 1 0 0 0-.6-1.2l-3.7-1.5 4.1-5a1 1 0 0 0 .1-.1l3.2-5.9A22 22 0 0 1 54 32ZM34.3 10.1 35 13l-2.6 6-3.9-.6 1.4-2.8a1 1 0 0 0 .1-.8l-1.5-4.4A22.7 22.7 0 0 1 32 10a20.1 20.1 0 0 1 2.3.1ZM10 32a22 22 0 0 1 8.3-17.2l3.5 2.6-2.8 8.3a1 1 0 0 0 .5 1.1l3.3 2.3a14.4 14.4 0 0 0-1.7.3L10 32Zm-3 2.8 14.6-3.5a13.2 13.2 0 0 1 9.4 1.3V37L7 38.7Zm6.7 9.5 9.9-.7-4.9 6a22.1 22.1 0 0 1-5-5.3Zm16.7 9.6.4-2 6-.8 2.7 1.6A21.8 21.8 0 0 1 32 54h-1.6Zm11.4-2.2-4.3-2.6a1 1 0 0 0-.6 0l-7 1a1 1 0 0 0-.9.7l-.6 2.9a22.1 22.1 0 0 1-8-3l6-7.3h.9a5 5 0 0 0 9.6 0l6.6.4L48 47a22 22 0 0 1-6.2 4.7Zm7.5-6.2-2-1.4 3 .2-1 1.2ZM60 43l-7.9-.5L36 41.3a1 1 0 0 0-1 1 3 3 0 0 1-6 0 1 1 0 0 0-1-1l-2.2.1-13.9 1L4 43v-2L32 39l28 2Z" style="fill:#3b8686"/><path d="M22.9 6.6a27 27 0 0 1 29.7 8 1 1 0 0 0 .8.4 1 1 0 0 0 .7-1.7 29.1 29.1 0 0 0-31.9-8.6 1 1 0 0 0 .7 1.9ZM59 30a1 1 0 0 0 1 1 1 1 0 0 0 1-1 29 29 0 0 0-1.7-7.8 1 1 0 0 0-1.9.7A26.8 26.8 0 0 1 59 30ZM4 31h.1a1 1 0 0 0 1-1 27.1 27.1 0 0 1 9.4-18.6 1 1 0 0 0-1.2-1.5A29.1 29.1 0 0 0 3 29.9 1 1 0 0 0 4 31Z" style="fill:#3b8686"/></g></svg>