<?xml version="1.0" encoding="utf-8"?>
<!-- Generator: Adobe Illustrator 27.7.0, SVG Export Plug-In . SVG Version: 6.00 Build 0)  -->
<svg version="1.1" id="Capa_1" xmlns="http://www.w3.org/2000/svg" xmlns:xlink="http://www.w3.org/1999/xlink" x="0px" y="0px"
	 viewBox="0 0 36 51" style="enable-background:new 0 0 36 51;" xml:space="preserve">
<style type="text/css">
	.st0{fill:#FFFCFA;}
</style>
<path class="st0" d="M6.2,42.1c-0.5,0-1-0.2-1.4-0.6c-0.4-0.4-0.6-0.9-0.6-1.4L3.9,10.8c0-0.6,0.1-1.2,0.3-1.7
	C4.3,8.5,4.7,8,5.1,7.5c0.4-0.4,0.9-0.8,1.4-1s1.1-0.4,1.7-0.4L27.4,6c0.6,0,1.2,0.1,1.7,0.4c0.5,0.2,1,0.6,1.5,1
	c0.4,0.4,0.7,0.9,1,1.5c0.2,0.6,0.3,1.1,0.3,1.7l0.3,29.3c0,0.4-0.1,0.7-0.3,1s-0.4,0.6-0.7,0.7c-0.3,0.2-0.6,0.3-1,0.3
	s-0.7-0.1-1-0.3l-11.4-6.3L7.2,41.8C6.9,42,6.5,42.1,6.2,42.1z M17.7,31c0.3,0,0.7,0.1,1,0.2l9.4,5.2l-0.2-25.9
	c0-0.4-0.3-0.7-0.4-0.7L8.2,10.1c-0.2,0-0.4,0.3-0.4,0.7L8,36.6l8.6-5.3C17,31.1,17.3,31,17.7,31z"/>
</svg>
