<?xml version="1.0" encoding="utf-8"?>
<!-- Generator: Adobe Illustrator 27.7.0, SVG Export Plug-In . SVG Version: 6.00 Build 0)  -->
<svg version="1.1" id="Capa_1" xmlns="http://www.w3.org/2000/svg" xmlns:xlink="http://www.w3.org/1999/xlink" x="0px" y="0px"
	 viewBox="0 0 59 68" style="enable-background:new 0 0 59 68;" xml:space="preserve">
<style type="text/css">
	.st0{fill:#E75C62;}
</style>
<path class="st0" d="M58.4,14.1c-0.2-0.2-0.5-0.3-0.8-0.3c-0.3,0-0.6,0-0.8,0.1l-25.4,11c-1.1,0.5-2.5,0.7-3.9,0.7
	c-2,0-4-0.5-5.4-1.1c-0.4-0.2-0.8-0.4-1.2-0.7c0.1-0.1,0.2-0.1,0.4-0.2l23.1-10l3.4,1.5v-4.3c0-0.3-0.1-0.6-0.2-0.9
	c-0.1-0.3-0.3-0.5-0.6-0.7c-0.2-0.2-0.5-0.3-0.8-0.3c-0.3,0-0.6,0-0.8,0.1L20,20c-0.8,0.3-1.5,0.7-2,1.3c-0.7,0.6-1,1.5-1,2.5
	c0,0,0,0.1,0,0.1v38.7l0,0.1c0,0,0,0,0,0v0h0c0.1,1.4,0.7,2.2,1.4,2.8c2,1.8,5.5,2.8,9.1,2.9c1.7,0,3.5-0.3,5.1-1l25.4-11
	c0.7-0.3,1.1-1,1.1-1.8V15.7c0-0.3-0.1-0.6-0.2-0.9C58.8,14.6,58.6,14.3,58.4,14.1z M42.3,6.8c0-0.6-0.3-1.1-0.7-1.5
	C41.4,5.1,41.1,5,40.8,5c-0.3,0-0.6,0-0.8,0.1l-25.4,11c-1.1,0.5-2.5,0.7-3.9,0.7c-2,0-4-0.5-5.4-1.1C4.8,15.5,4.4,15.3,4,15
	c0.1-0.1,0.2-0.1,0.4-0.2l23.1-10l3.4,1.5V2c0-0.3-0.1-0.6-0.2-0.9c-0.1-0.3-0.3-0.5-0.6-0.7c-0.2-0.2-0.5-0.3-0.8-0.3
	c-0.3,0-0.6,0-0.8,0.1l-25.4,11c-0.8,0.3-1.5,0.7-2,1.3c-0.7,0.6-1,1.5-1,2.5c0,0,0,0.1,0,0.1v38.8h0c0.1,1.4,0.7,2.2,1.4,2.8
	c2,1.8,5.5,2.8,9.1,2.9c1,0,2-0.1,3-0.3V23.8c0-1.8,0.7-3.6,2-4.9c0.9-0.9,2-1.5,3.1-2L42.3,6.8z"/>
</svg>
