<?xml version="1.0" encoding="utf-8"?>
<!-- Generator: Adobe Illustrator 27.7.0, SVG Export Plug-In . SVG Version: 6.00 Build 0)  -->
<svg version="1.1" id="Capa_1" xmlns="http://www.w3.org/2000/svg" xmlns:xlink="http://www.w3.org/1999/xlink" x="0px" y="0px"
	 viewBox="0 0 41 51" style="enable-background:new 0 0 41 51;" xml:space="preserve">
<style type="text/css">
	.st0{fill:#C4C4C4;}
</style>
<path class="st0" d="M14,44.6c-0.9,0-1.8-0.3-2.6-0.9l-4-2.9c-0.9-0.7-1.5-1.7-1.7-2.9c-0.2-1.1,0.1-2.3,0.8-3.3
	c0.3-0.5,0.6-1.1,0.6-1.7c0.1-0.6,0-1.2-0.2-1.8l-0.1-0.3c-0.1-0.5-0.4-1-0.8-1.4c-0.4-0.4-0.8-0.7-1.4-0.9H4.4
	c-1.1-0.4-2-1.2-2.6-2.2c-0.5-1.1-0.6-2.3-0.3-3.4l1.6-5c0.1-0.6,0.4-1.1,0.8-1.6c0.4-0.5,0.8-0.8,1.4-1.1c0.5-0.3,1-0.4,1.6-0.4
	c0.6,0,1.1,0,1.6,0.2c0.6,0.2,1.2,0.2,1.8,0.1c0.6-0.1,1.2-0.3,1.6-0.7l0.2-0.2c0.4-0.3,0.8-0.8,1-1.3c0.2-0.5,0.4-1,0.4-1.6v-0.5
	c0-1.2,0.5-2.3,1.3-3.1c0.8-0.8,1.9-1.3,3.1-1.3h4.9c0.6,0,1.1,0.1,1.7,0.3c0.5,0.2,1,0.5,1.4,0.9c0.8,0.9,1.3,2,1.3,3.2v0.5
	c0,0.5,0.1,1.1,0.3,1.5c0.2,0.5,0.6,0.9,1,1.2l0.2,0.2c0.4,0.3,0.9,0.5,1.5,0.6c0.5,0.1,1.1,0,1.6-0.1l0.7-0.2
	c0.6-0.2,1.1-0.3,1.7-0.2s1.1,0.2,1.7,0.5c0.5,0.3,1,0.6,1.3,1.1s0.6,1,0.8,1.5l1.5,4.8c0.3,1.1,0.3,2.3-0.3,3.4
	c-0.5,1-1.4,1.8-2.5,2.2L36.3,28c-0.6,0.2-1.1,0.5-1.5,0.9c-0.4,0.4-0.7,0.9-0.9,1.5c-0.2,0.5-0.2,1.1-0.1,1.6
	c0.1,0.5,0.3,1.1,0.6,1.5l0.5,0.7c0.7,1,0.9,2.1,0.8,3.3c-0.2,1.1-0.8,2.2-1.7,2.9l-3.8,3c-0.5,0.4-1,0.6-1.6,0.8
	c-0.6,0.1-1.2,0.2-1.7,0.1c-0.6-0.1-1.1-0.3-1.6-0.6c-0.5-0.3-0.9-0.7-1.2-1.2l-0.2-0.3c-0.3-0.5-0.7-0.9-1.2-1.1
	c-0.5-0.3-1.1-0.4-1.6-0.4c-0.5,0-1.1,0.2-1.5,0.4c-0.5,0.3-0.9,0.6-1.2,1.1l-0.4,0.6c-0.3,0.5-0.7,0.9-1.2,1.2
	c-0.5,0.3-1,0.5-1.6,0.6C14.5,44.7,14.3,44.7,14,44.6z M6,24.8c1.1,0.4,2.1,1,2.8,1.8c0.8,0.8,1.4,1.8,1.7,2.9v0.2
	c0.4,1.1,0.5,2.4,0.4,3.6c-0.2,1.2-0.6,2.4-1.3,3.4c-0.1,0.1-0.2,0.3-0.2,0.5c0,0.2,0.1,0.4,0.2,0.5l4.1,3.1c0.1,0,0.1,0.1,0.2,0.1
	c0.1,0,0.1,0,0.2,0c0.1,0,0.1,0,0.2-0.1c0.1,0,0.1-0.1,0.1-0.1l0.4-0.6c0.7-1,1.6-1.7,2.6-2.3c1-0.5,2.2-0.8,3.3-0.8
	c1.2,0,2.3,0.3,3.3,0.8c1,0.5,1.9,1.3,2.6,2.3l0.2,0.3c0.1,0.1,0.2,0.2,0.3,0.2c0.1,0,0.1,0,0.2,0c0.1,0,0.1,0,0.2-0.1l3.9-3
	c0.1-0.1,0.2-0.3,0.3-0.4c0-0.2,0-0.4-0.1-0.5l-0.5-0.7c-0.6-0.9-1.1-2-1.3-3.2c-0.2-1.1-0.1-2.3,0.2-3.4c0.3-1.2,0.9-2.2,1.8-3.1
	c0.8-0.9,1.9-1.5,3-1.9l0.4-0.1c0.2-0.1,0.3-0.2,0.4-0.3c0.1-0.2,0.1-0.3,0-0.5l-1.5-4.8c0-0.1-0.1-0.2-0.2-0.2
	c-0.1-0.1-0.1-0.1-0.2-0.1c-0.1,0-0.1,0-0.2,0c-0.1,0-0.1,0-0.2,0l-0.7,0.2c-1.1,0.4-2.3,0.5-3.4,0.3c-1.1-0.2-2.2-0.7-3.1-1.4
	l-0.1-0.2c-0.9-0.7-1.6-1.5-2.1-2.5c-0.5-1-0.8-2.1-0.8-3.2v-0.6c0-0.2-0.1-0.4-0.2-0.5c-0.1-0.1-0.3-0.2-0.4-0.2h-4.9
	c-0.1,0-0.2,0-0.2,0.1s-0.1,0.1-0.2,0.1c-0.1,0.1-0.1,0.1-0.1,0.2c0,0.1,0,0.2,0,0.2v0.5c0,1.1-0.3,2.3-0.8,3.3
	c-0.5,1-1.2,1.9-2.1,2.6l-0.2,0.2c-1,0.7-2.1,1.2-3.3,1.4c-1.2,0.2-2.5,0.1-3.6-0.3c-0.1,0-0.2,0-0.3,0c-0.1,0.1-0.2,0.2-0.2,0.3
	l-1.6,5c-0.1,0.2,0,0.4,0,0.5s0.2,0.3,0.4,0.3L6,24.8z"/>
<path class="st0" d="M20.5,32.2c-1.3,0-2.6-0.4-3.7-1.1c-1.1-0.7-2-1.8-2.5-3c-0.5-1.2-0.6-2.6-0.4-3.9c0.3-1.3,0.9-2.5,1.8-3.4
	c0.9-0.9,2.1-1.6,3.4-1.8c1.3-0.3,2.6-0.1,3.9,0.4c1.2,0.5,2.3,1.4,3,2.5c0.7,1.1,1.1,2.4,1.1,3.7c0,1.8-0.7,3.5-2,4.7
	C24,31.5,22.3,32.2,20.5,32.2z M20.5,22.6c-0.6,0-1.1,0.2-1.6,0.5c-0.5,0.3-0.8,0.8-1.1,1.3c-0.2,0.5-0.3,1.1-0.2,1.7
	c0.1,0.6,0.4,1.1,0.8,1.5c0.4,0.4,0.9,0.7,1.5,0.8c0.6,0.1,1.1,0.1,1.7-0.2c0.5-0.2,1-0.6,1.3-1.1c0.3-0.5,0.5-1,0.5-1.6
	c0-0.8-0.3-1.5-0.8-2S21.3,22.6,20.5,22.6z"/>
</svg>
