<?xml version="1.0" encoding="utf-8"?>
<!-- Generator: Adobe Illustrator 27.7.0, SVG Export Plug-In . SVG Version: 6.00 Build 0)  -->
<svg version="1.1" id="Capa_1" xmlns="http://www.w3.org/2000/svg" xmlns:xlink="http://www.w3.org/1999/xlink" x="0px" y="0px"
	 viewBox="0 0 39 57" style="enable-background:new 0 0 39 57;" xml:space="preserve">
<style type="text/css">
	.st0{fill:#0D276B;}
</style>
<g>
	<path class="st0" d="M3.2,21.7h12.4c1.1,0,2.1-0.9,2.1-2.1V3.1c0-1.1-0.9-2.1-2.1-2.1H3.2C2.1,1,1.1,1.9,1.1,3.1v16.5
		C1.1,20.7,2.1,21.7,3.2,21.7z M3.2,38.2h12.4c1.1,0,2.1-0.9,2.1-2.1v-8.3c0-1.1-0.9-2.1-2.1-2.1H3.2c-1.1,0-2.1,0.9-2.1,2.1v8.3
		C1.1,37.3,2.1,38.2,3.2,38.2z M23.9,38.2h12.4c1.1,0,2.1-0.9,2.1-2.1V19.6c0-1.1-0.9-2.1-2.1-2.1H23.9c-1.1,0-2.1,0.9-2.1,2.1v16.5
		C21.8,37.3,22.7,38.2,23.9,38.2z M21.8,3.1v8.3c0,1.1,0.9,2.1,2.1,2.1h12.4c1.1,0,2.1-0.9,2.1-2.1V3.1c0-1.1-0.9-2.1-2.1-2.1H23.9
		C22.7,1,21.8,1.9,21.8,3.1z"/>
</g>
<path class="st0" d="M6.6,52.5h26.3c1,0,1.9,0.8,1.9,1.9v0c0,1-0.8,1.9-1.9,1.9H6.6c-1,0-1.9-0.8-1.9-1.9v0
	C4.8,53.4,5.6,52.5,6.6,52.5z"/>
</svg>
