<?xml version="1.0" encoding="utf-8"?>
<!-- Generator: Adobe Illustrator 27.7.0, SVG Export Plug-In . SVG Version: 6.00 Build 0)  -->
<svg version="1.1" id="Capa_1" xmlns="http://www.w3.org/2000/svg" xmlns:xlink="http://www.w3.org/1999/xlink" x="0px" y="0px"
	 viewBox="0 0 41 51" style="enable-background:new 0 0 41 51;" xml:space="preserve">
<style type="text/css">
	.st0{fill:#C4C4C4;}
</style>
<path class="st0" d="M21.9,27.2c1.3,0,2.5,0.5,3.4,1.5c0.9,0.9,1.4,2.2,1.4,3.5l0,2.5c0.3,6.1-4.2,9.2-12.5,9.2
	c-8.3,0-12.9-3-12.9-9.1v-2.6c0-1.3,0.5-2.6,1.4-3.5s2.1-1.5,3.4-1.5H21.9z M34.6,27.2c1.3,0,2.5,0.5,3.4,1.5s1.4,2.2,1.4,3.5v1.8
	c0.3,5.5-3.7,8.2-10.9,8.2c-1,0-1.9,0-2.8-0.2c0.9-0.9,1.6-2,2-3.2l0.7,0c5.7,0,7.9-1.6,7.8-4.8v-1.8c0-0.4-0.2-0.9-0.5-1.2
	c-0.3-0.3-0.7-0.5-1.1-0.5H28c-0.3-1.3-1-2.5-2-3.3H34.6L34.6,27.2z M21.9,30.5H6c-0.4,0-0.8,0.2-1.1,0.5c-0.3,0.3-0.5,0.7-0.5,1.2
	v2.6c0,3.8,2.9,5.8,9.7,5.8c6.7,0,9.5-1.9,9.3-5.8v-2.6c0-0.4-0.2-0.9-0.5-1.2C22.7,30.7,22.3,30.5,21.9,30.5z M14,7.2
	c2.1,0,4.1,0.9,5.6,2.4c1.5,1.6,2.3,3.7,2.3,5.9c0,2.2-0.8,4.3-2.3,5.9c-1.5,1.6-3.5,2.4-5.6,2.4S9.8,23,8.3,21.4
	C6.9,19.8,6,17.7,6,15.5c0-2.2,0.8-4.3,2.3-5.9C9.8,8,11.9,7.2,14,7.2z M29.8,10.5c1.7,0,3.3,0.7,4.5,2c1.2,1.3,1.9,2.9,1.9,4.7
	c0,1.8-0.7,3.5-1.9,4.7c-1.2,1.3-2.8,2-4.5,2s-3.3-0.7-4.5-2c-1.2-1.3-1.9-2.9-1.9-4.7c0-1.8,0.7-3.5,1.9-4.7
	C26.5,11.2,28.1,10.5,29.8,10.5z M14,10.5c-0.6,0-1.2,0.1-1.8,0.4c-0.6,0.3-1.1,0.6-1.5,1.1c-0.4,0.5-0.8,1-1,1.6
	c-0.2,0.6-0.4,1.3-0.4,1.9s0.1,1.3,0.4,1.9c0.2,0.6,0.6,1.2,1,1.6c0.4,0.5,1,0.8,1.5,1.1c0.6,0.3,1.2,0.4,1.8,0.4
	c1.3,0,2.5-0.5,3.4-1.5c0.9-0.9,1.4-2.2,1.4-3.5c0-1.3-0.5-2.6-1.4-3.5C16.4,11,15.2,10.5,14,10.5z M29.8,13.8c-0.8,0-1.6,0.4-2.2,1
	c-0.6,0.6-0.9,1.5-0.9,2.4c0,0.9,0.3,1.7,0.9,2.4c0.6,0.6,1.4,1,2.2,1c0.8,0,1.6-0.4,2.2-1c0.6-0.6,0.9-1.5,0.9-2.4
	c0-0.9-0.3-1.7-0.9-2.4C31.5,14.2,30.7,13.8,29.8,13.8z"/>
</svg>
