<?xml version="1.0" encoding="utf-8"?>
<!-- Generator: Adobe Illustrator 27.7.0, SVG Export Plug-In . SVG Version: 6.00 Build 0)  -->
<svg version="1.1" id="Capa_1" xmlns="http://www.w3.org/2000/svg" xmlns:xlink="http://www.w3.org/1999/xlink" x="0px" y="0px"
	 viewBox="0 0 42.9 51" style="enable-background:new 0 0 42.9 51;" xml:space="preserve">
<style type="text/css">
	.st0{fill-rule:evenodd;clip-rule:evenodd;fill:#C4C4C4;}
	.st1{fill:#C4C4C4;}
</style>
<path class="st0" d="M18.4,42c0-0.5-0.2-1.1-0.6-1.5s-0.9-0.6-1.5-0.6H6V11h10.3c0.5,0,1.1-0.2,1.5-0.6c0.4-0.4,0.6-0.9,0.6-1.5
	c0-0.5-0.2-1.1-0.6-1.5c-0.4-0.4-0.9-0.6-1.5-0.6H6C4.9,6.9,3.8,7.3,3,8.1S1.8,9.9,1.8,11v28.9c0,1.1,0.4,2.1,1.2,2.9
	c0.8,0.8,1.8,1.2,2.9,1.2h10.3c0.5,0,1.1-0.2,1.5-0.6S18.4,42.6,18.4,42z"/>
<path class="st1" d="M40.5,26.9c0.4-0.4,0.6-0.9,0.6-1.4v0c0-0.5-0.2-1.1-0.6-1.5l-8.3-8.3c-0.2-0.2-0.4-0.4-0.7-0.5
	s-0.5-0.2-0.8-0.2c-0.3,0-0.5,0-0.8,0.2c-0.3,0.1-0.5,0.3-0.7,0.5c-0.2,0.2-0.3,0.4-0.5,0.7c-0.1,0.3-0.2,0.5-0.2,0.8
	c0,0.3,0.1,0.5,0.2,0.8c0.1,0.3,0.3,0.5,0.5,0.7l4.7,4.7H14.2c-0.5,0-1.1,0.2-1.5,0.6c-0.4,0.4-0.6,0.9-0.6,1.5
	c0,0.5,0.2,1.1,0.6,1.5c0.4,0.4,0.9,0.6,1.5,0.6H34l-4.7,4.7c-0.4,0.4-0.6,0.9-0.6,1.5c0,0.5,0.2,1.1,0.6,1.4
	c0.4,0.4,0.9,0.6,1.4,0.6c0.5,0,1.1-0.2,1.5-0.6L40.5,26.9L40.5,26.9z"/>
</svg>
