<?xml version="1.0" encoding="utf-8"?>
<!-- Generator: Adobe Illustrator 27.7.0, SVG Export Plug-In . SVG Version: 6.00 Build 0)  -->
<svg version="1.1" id="Capa_1" xmlns="http://www.w3.org/2000/svg" xmlns:xlink="http://www.w3.org/1999/xlink" x="0px" y="0px"
	 viewBox="0 0 36 51" style="enable-background:new 0 0 36 51;" xml:space="preserve">
<style type="text/css">
	.st0{clip-path:url(#SVGID_00000029723803063036249020000006243690633435124365_);}
	.st1{fill:#C4C4C4;}
	.st2{fill:#E75C62;stroke:#FFFFFF;stroke-width:0.5;}
</style>
<g>
	<defs>
		<rect id="SVGID_1_" x="0.2" y="0.6" width="35" height="50"/>
	</defs>
	<clipPath id="SVGID_00000038410577801373488130000008423182186321878676_">
		<use xlink:href="#SVGID_1_"  style="overflow:visible;"/>
	</clipPath>
	<g style="clip-path:url(#SVGID_00000038410577801373488130000008423182186321878676_);">
		<path class="st1" d="M33.5,29.5c-1.3-1.3-2.7-2.7-2.7-9.1c0-3.1-1.1-6.1-3.1-8.4c-2-2.4-4.8-3.9-7.8-4.4l-0.1,0
			c0.3-0.4,0.4-0.8,0.4-1.3c0-0.5-0.1-0.9-0.3-1.3c-0.2-0.4-0.5-0.7-0.9-1c-0.4-0.2-0.8-0.4-1.3-0.4c-0.5,0-0.9,0.1-1.3,0.4
			c-0.4,0.2-0.7,0.6-0.9,1c-0.2,0.4-0.3,0.9-0.3,1.3s0.2,0.9,0.4,1.3l0,0c-6.3,1-11,6.4-11,12.9v0c0,6.4-1.4,7.8-2.7,9.1
			c-0.8,0.7-1.4,1.6-1.6,2.7c-0.3,1-0.2,2.1,0.2,3.1c0.4,1,1,1.8,1.9,2.5c0.9,0.6,1.9,0.9,3,0.9h7.3c0,1.3,0.5,2.6,1.5,3.5
			c0.9,0.9,2.2,1.5,3.5,1.5c1.3,0,2.6-0.5,3.5-1.5c0.9-0.9,1.5-2.2,1.5-3.5H30c1.1,0,2.1-0.3,3-0.9c0.9-0.6,1.5-1.5,1.9-2.4
			s0.4-2.1,0.2-3.1C34.8,31.1,34.3,30.2,33.5,29.5L33.5,29.5L33.5,29.5z M17.7,40.5c-0.5,0-1-0.2-1.3-0.6c-0.4-0.4-0.5-0.8-0.6-1.3
			h3.8c0,0.5-0.2,1-0.6,1.3C18.7,40.3,18.2,40.5,17.7,40.5z M30,34.9H5.5c-0.3,0-0.6-0.1-0.8-0.3c-0.2-0.2-0.4-0.4-0.5-0.7
			C4,33.7,4,33.4,4,33.1c0.1-0.3,0.2-0.5,0.4-0.8c2.2-2.2,4-4.4,4-12c0-2.5,1-4.8,2.7-6.6c1.7-1.7,4.1-2.7,6.6-2.7s4.8,1,6.6,2.7
			c1.7,1.7,2.7,4.1,2.7,6.6c0,7.6,1.8,9.7,4,12c0.2,0.2,0.3,0.5,0.4,0.8c0.1,0.3,0,0.6-0.1,0.8c-0.1,0.3-0.3,0.5-0.5,0.7
			C30.6,34.8,30.3,34.9,30,34.9L30,34.9z"/>
		<circle class="st2" cx="24.2" cy="8.6" r="4.8"/>
	</g>
</g>
</svg>
