<?xml version="1.0" encoding="utf-8"?>
<svg width="800px" height="800px" viewBox="0 0 1024 1024" class="icon"  version="1.1" xmlns="http://www.w3.org/2000/svg"><path d="M773.8 414.3V313.5h-80.5v-97.1H333.4v97.1h-80.6v100.8H167v204.6h85.8v102.3h80.6v102.3h359.9V721.2h80.5V618.9h85.8V414.3zM477.8 55.2H552v74.2h-74.2zM477.8 897.7H552v74.2h-74.2zM859.6 129.4h74.2v74.2h-74.2zM859.6 823.5h74.2v74.2h-74.2zM92.9 129.4h74.2v74.2H92.9zM92.9 823.5h74.2v74.2H92.9zM18.7 463.6h74.2v74.2H18.7zM933.7 463.6h74.2v74.2h-74.2z" fill="#000" /></svg>