<?xml version="1.0" ?><svg id="Layer_1" style="enable-background:new 0 0 30 30;" version="1.1" viewBox="0 0 30 30" xml:space="preserve" xmlns="http://www.w3.org/2000/svg" xmlns:xlink="http://www.w3.org/1999/xlink"><style type="text/css">
	.st0{fill:#FBCDCB;}
	.st1{fill:#FBB1AC;}
	.st2{fill:none;stroke:#000000;stroke-width:0.8;stroke-linecap:round;stroke-linejoin:round;stroke-miterlimit:10;}
</style><g><path class="st0" d="M18.014,0"/><path class="st1" d="M12.444,2.953c0,0,1.928-3.562,4.484-1.802c0,0,1.508,0.67,0.377,3.436L15.26,8.715L11.69,8.59l-1.655-0.127   C10.035,8.463,11.962,3.267,12.444,2.953z"/><polygon class="st1" points="10.179,12.948 14.62,12.445 15.26,15.839 11.31,16.468  "/><polygon class="st0" points="10.388,8.59 14.997,8.925 14.495,12.152 10.388,12.613 9.718,10.978  "/><path class="st2" d="M23.767,27.174"/><polygon class="st0" points="11.561,16.468 15.26,15.839 16.674,19.485 12.701,20.029  "/><polygon class="st1" points="12.701,23.098 16.674,22.795 16.674,19.737 12.701,20.029  "/><path class="st0" d="M11.771,24.974l2.053,2.514c0,0,2.598-2.682,2.64-3.268s0.071-1.018,0.071-1.018v-0.177l-3.963,0.166   L11.771,24.974z"/><path class="st1" d="M9.718,25.644l-0.157,3.017c0,0,2.954,0.911,3.897-0.849c0,0,1.016-0.283-1.896-2.703L9.718,25.644z"/><path class="st0" d="M8.649,24.639l-2.86,1.194c0,0,0.346,3.017,3.331,2.828c0,0,0.629,0.251,0.44-3.551L8.649,24.639z"/><path class="st1" d="M6.481,20.208l2.388,2.011v1.823l-3.363,1.603C5.507,25.644,4.689,21.967,6.481,20.208z"/><path class="st0" d="M6.795,19.737c0,0,3.108-1.495,3.583-1.101l0.377,3.111l-1.603,0.346l-2.828-2.064L6.795,19.737z"/><polygon class="st1" points="10.598,18.793 12.012,18.793 12.701,20.93 12.358,22.219 10.975,22.093  "/><polygon class="st0" points="17.386,21.559 18.643,24.042 16.977,25.644 16.192,25.644  "/><polygon class="st1" points="16.674,26.21 17.794,27.719 19.177,25.99 18.957,24.639 17.972,24.687  "/><polygon class="st0" points="19.177,26.572 17.842,28.237 19.382,29.321 19.906,28.048 19.947,27.946  "/><path class="st1" d="M20.214,28.111h1.006v1.1c0,0-0.739,0.283-0.801,0.283C20.356,29.494,19.382,29.18,20.214,28.111z"/><polygon class="st0" points="21.739,27.488 22.964,27.004 22.964,28.017 21.927,28.803  "/><polyline class="st1" points="23.278,26.729 24.661,26.572 23.42,27.829 23.278,26.807  "/><path d="M25.215,26.298c-0.499-0.821-2.486,0.083-4.124,1.023c-0.312,0.179-0.512,0.288-0.638,0.238   c-0.033-0.031-0.073-0.055-0.116-0.074c-0.263-0.237-0.664-1.017-1.203-3.171c-0.008-0.112-0.219-2.626-1.866-3.431   c-0.052-1.386-0.51-2.391-0.919-3.277c-0.866-1.878-1.325-3.671-1.362-5.327c-0.051-2.242,0.603-3.665,0.639-3.743   c2.6-3.933,3.147-6.252,1.768-7.514c-0.766-0.703-1.589-0.972-2.44-0.804c-2.073,0.41-3.606,3.358-4.026,4.251L10.726,4.89   c-0.461,0.948-0.671,1.381-1.205,4.37c-0.42,2.35,0.3,4.575,1.969,8.382c0.099,0.226,0.189,0.455,0.271,0.692   c-1.825-0.306-3.365-0.076-4.579,0.694c-0.405,0.257-0.732,0.553-1.005,0.855c-0.003,0.004-0.008,0.005-0.011,0.009   c-0.001,0.001-0.001,0.003-0.002,0.004c-0.89,0.99-1.136,2.047-1.143,2.085c-0.489,1.667-0.372,2.955-0.001,3.944   c0.004,0.019,0.002,0.037,0.01,0.055c0.005,0.014,0.02,0.02,0.027,0.034c0.775,1.94,2.54,2.666,2.567,2.677   c0.696,0.27,1.346,0.423,1.956,0.493c0.009,0.001,0.017,0.006,0.027,0.007c0.007,0,0.015,0.001,0.023,0.001l0.002,0   c0.238,0.025,0.471,0.041,0.695,0.041c3.109,0,4.955-2.307,5.596-3.279c0.046,0.053,0.114,0.137,0.199,0.246   c0.014,0.027,0.024,0.056,0.045,0.081c0.013,0.015,0.03,0.021,0.045,0.034c0.313,0.411,0.825,1.139,1.54,2.321   C18.208,29.217,19.168,30,20.289,30c0.495,0,1.02-0.152,1.548-0.541c0.51-0.377,2.014-1.432,2.817-1.946   C25.222,27.149,25.442,26.672,25.215,26.298z M21.974,27.756c0.263-0.143,0.512-0.274,0.731-0.379v0.479   c-0.26,0.181-0.509,0.355-0.731,0.512V27.756z M17.028,26.075l1.427-1.21c0.112,0.43,0.221,0.813,0.324,1.142l-0.951,1.233   C17.515,26.752,17.25,26.37,17.028,26.075z M18.273,23.965L16.51,25.46c-0.08-0.082-0.153-0.149-0.217-0.201   c0.578-1.354,0.86-2.48,0.948-3.439C17.891,22.363,18.164,23.368,18.273,23.965z M10.224,24.708   c-0.415-0.07-0.752-0.406-0.986-0.95C9.237,23.753,9.066,23.099,9.4,22.7c0.236-0.283,0.675-0.361,1.092-0.361   c0.13,0,0.257,0.008,0.376,0.02c0.255,0.024,0.895,0.107,1.307,0.161c-0.041,0.498-0.145,1.242-0.452,1.581   C11.502,24.344,10.846,24.81,10.224,24.708z M12.974,20.286l3.375-0.34c0.076,0.365,0.123,0.759,0.124,1.195   c0,0.016-0.003,0.031-0.001,0.047c-0.002,0.349-0.037,0.727-0.105,1.134l-3.393,0.217c0.009-0.117,0.021-0.237,0.027-0.348   C13.037,21.462,13.021,20.841,12.974,20.286z M16.13,19.159l-3.253,0.328c-0.147-0.893-0.389-1.574-0.65-2.169   c-0.093-0.211-0.171-0.399-0.257-0.599l2.994-0.414c0.188,0.539,0.401,1.084,0.656,1.638C15.797,18.327,15.979,18.724,16.13,19.159   z M10.582,13.005l3.636-0.285c0.055,0.905,0.225,1.842,0.505,2.806l-3.082,0.426C11.172,14.822,10.822,13.868,10.582,13.005z    M10.313,9.401c0.026-0.146,0.051-0.281,0.075-0.415l4.14,0.281c-0.17,0.639-0.327,1.543-0.339,2.648l-3.797,0.298   C10.186,11.209,10.151,10.313,10.313,9.401z M11.45,5.242l0.207-0.43c0.783-1.664,2.102-3.537,3.455-3.805   c0.598-0.116,1.166,0.082,1.741,0.608c1.004,0.919,0.377,3.047-1.916,6.509c-0.005,0.007-0.005,0.016-0.01,0.024   c-0.004,0.008-0.012,0.013-0.016,0.021c-0.008,0.016-0.059,0.124-0.131,0.311l-4.24-0.288C10.893,6.392,11.081,6.001,11.45,5.242z    M12.008,19.208c0.151,0.686,0.231,1.48,0.206,2.505c-0.293-0.038-0.671-0.087-0.959-0.121l-0.402-2.561   C11.219,19.059,11.61,19.127,12.008,19.208z M7.624,19.701c0.675-0.424,1.492-0.632,2.415-0.667l0.394,2.514   c-0.502,0.009-0.925,0.103-1.25,0.298l-2.105-1.727C7.242,19.972,7.42,19.83,7.624,19.701z M5.8,22.181   c0.002-0.011,0.178-0.721,0.737-1.464l2.084,1.71c-0.386,0.693-0.166,1.518-0.14,1.599c0.025,0.058,0.052,0.106,0.078,0.16   l-2.899,1.12C5.443,24.498,5.42,23.476,5.8,22.181z M5.943,26.057l3.063-1.183c0.136,0.152,0.275,0.27,0.415,0.36l-0.168,3.076   c-0.425-0.078-0.866-0.189-1.337-0.371C7.831,27.907,6.616,27.406,5.943,26.057z M10.053,28.408l0.158-2.896   c0.064,0.006,0.128,0.016,0.191,0.016c0.374,0,0.731-0.113,1.047-0.266l2.073,2.112C12.665,27.999,11.508,28.481,10.053,28.408z    M14.141,26.855l-2.008-2.046c0.064-0.057,0.138-0.115,0.186-0.169c0.294-0.325,0.452-0.794,0.548-1.289l3.324-0.212   c-0.161,0.61-0.398,1.284-0.735,2.038C15.415,25.257,14.98,26.065,14.141,26.855z M18.411,28.178   c-0.045-0.075-0.086-0.139-0.129-0.211l0.814-1.056c0.211,0.519,0.41,0.854,0.605,1.07l-0.342,0.964   C18.798,28.651,18.427,28.195,18.411,28.178z M20.13,29.18l0.291-0.82c0.256,0.023,0.504-0.05,0.748-0.17v0.737   c0,0.001,0.001,0.002,0.001,0.003C20.807,29.145,20.455,29.209,20.13,29.18z M24.219,26.836c-0.205,0.131-0.45,0.294-0.709,0.469   v-0.277c0.33-0.124,0.598-0.205,0.773-0.235C24.264,26.806,24.242,26.821,24.219,26.836z"/><ellipse cx="13.588" cy="3.784" rx="0.471" ry="0.471" transform="matrix(0.0902 -0.9959 0.9959 0.0902 8.5932 16.9752)"/><ellipse cx="15.731" cy="4.792" rx="0.471" ry="0.471" transform="matrix(0.0901 -0.9959 0.9959 0.0901 9.5406 20.0265)"/><path d="M13.619,6.335c0.271,0.143,0.565,0.217,0.863,0.217c0.182,0,0.365-0.027,0.545-0.082c0.212-0.065,0.331-0.29,0.266-0.503   C15.228,5.755,15.007,5.633,14.79,5.7c-0.265,0.081-0.548,0.055-0.794-0.076c-0.246-0.131-0.426-0.349-0.508-0.615   c-0.065-0.212-0.285-0.333-0.503-0.266c-0.212,0.065-0.331,0.29-0.266,0.503C12.864,5.717,13.184,6.104,13.619,6.335z"/></g></svg>